<svg xmlns="http://www.w3.org/2000/svg" xmlns:xlink="http://www.w3.org/1999/xlink" width="500" zoomAndPan="magnify" viewBox="0 0 375 374.999991" height="500" preserveAspectRatio="xMidYMid meet" version="1.2"><defs><clipPath id="245d9e35d1"><rect x="0" width="362" y="0" height="52"/></clipPath><clipPath id="9ceaf79221"><rect x="0" width="268" y="0" height="27"/></clipPath><clipPath id="e14a67ffd4"><path d="M 106 11.832031 L 269 11.832031 L 269 198 L 106 198 Z M 106 11.832031 "/></clipPath><clipPath id="099f01973d"><path d="M 162 238 L 186 238 L 186 248.082031 L 162 248.082031 Z M 162 238 "/></clipPath><clipPath id="c55f43fe30"><path d="M 189 175 L 283.070312 175 L 283.070312 243 L 189 243 Z M 189 175 "/></clipPath></defs><g id="67db3b9af9"><g transform="matrix(1,0,0,1,9,263)"><g clip-path="url(#245d9e35d1)"><g style="fill:#e49e33;fill-opacity:1;"><g transform="translate(0.715938, 40.599726)"><path style="stroke:none" d="M 2.40625 0 L 2.40625 -0.71875 C 3.269531 -0.988281 3.828125 -1.5625 4.078125 -2.4375 C 4.335938 -3.3125 4.46875 -4.671875 4.46875 -6.515625 L 4.46875 -29.40625 C 4.46875 -31.257812 4.335938 -32.617188 4.078125 -33.484375 C 3.828125 -34.359375 3.269531 -34.9375 2.40625 -35.21875 L 2.40625 -35.9375 L 15.09375 -35.9375 C 19.300781 -35.9375 22.269531 -35.328125 24 -34.109375 C 25.726562 -32.890625 26.59375 -31.238281 26.59375 -29.15625 C 26.59375 -27.40625 25.957031 -25.8125 24.6875 -24.375 C 23.425781 -22.9375 21.164062 -21.929688 17.90625 -21.359375 C 22.15625 -21.210938 25.347656 -20.265625 27.484375 -18.515625 C 29.617188 -16.773438 30.707031 -14.625 30.75 -12.0625 C 30.78125 -10.550781 30.488281 -9.078125 29.875 -7.640625 C 29.257812 -6.203125 28.273438 -4.910156 26.921875 -3.765625 C 25.566406 -2.617188 23.785156 -1.703125 21.578125 -1.015625 C 19.367188 -0.335938 16.691406 0 13.546875 0 Z M 9.90625 -5.28125 C 9.90625 -3.4375 10.078125 -2.234375 10.421875 -1.671875 C 10.765625 -1.109375 11.484375 -0.828125 12.578125 -0.828125 L 14.015625 -0.828125 C 17.710938 -0.828125 20.40625 -1.707031 22.09375 -3.46875 C 23.789062 -5.226562 24.640625 -7.457031 24.640625 -10.15625 C 24.640625 -13.238281 23.75 -15.765625 21.96875 -17.734375 C 20.1875 -19.703125 17.378906 -20.6875 13.546875 -20.6875 L 9.90625 -20.6875 Z M 9.90625 -21.5 L 14.46875 -21.5 C 16.351562 -21.5 17.828125 -22.132812 18.890625 -23.40625 C 19.953125 -24.675781 20.484375 -26.195312 20.484375 -27.96875 C 20.484375 -30.226562 19.726562 -31.984375 18.21875 -33.234375 C 16.71875 -34.484375 14.648438 -35.109375 12.015625 -35.109375 L 9.90625 -35.109375 Z M 9.90625 -21.5 "/></g></g><g style="fill:#e49e33;fill-opacity:1;"><g transform="translate(38.289504, 40.599726)"><path style="stroke:none" d="M 18.9375 0.515625 C 17.09375 0.515625 15.28125 0.273438 13.5 -0.203125 C 11.71875 -0.679688 10.109375 -1.476562 8.671875 -2.59375 C 7.234375 -3.707031 6.085938 -5.1875 5.234375 -7.03125 C 4.378906 -8.875 3.953125 -11.1875 3.953125 -13.96875 L 3.953125 -29.40625 C 3.953125 -31.257812 3.820312 -32.617188 3.5625 -33.484375 C 3.3125 -34.359375 2.757812 -34.9375 1.90625 -35.21875 L 1.90625 -35.9375 L 11.453125 -35.9375 L 11.453125 -35.21875 C 10.585938 -34.9375 10.023438 -34.359375 9.765625 -33.484375 C 9.515625 -32.617188 9.390625 -31.257812 9.390625 -29.40625 L 9.390625 -13.546875 C 9.390625 -10.429688 9.867188 -7.929688 10.828125 -6.046875 C 11.785156 -4.171875 13.132812 -2.8125 14.875 -1.96875 C 16.625 -1.132812 18.664062 -0.71875 21 -0.71875 C 22.09375 -0.71875 23.210938 -0.9375 24.359375 -1.375 C 25.503906 -1.820312 26.570312 -2.550781 27.5625 -3.5625 C 28.550781 -4.570312 29.351562 -5.914062 29.96875 -7.59375 C 30.59375 -9.269531 30.90625 -11.359375 30.90625 -13.859375 L 30.90625 -26.328125 C 30.90625 -28.421875 30.765625 -30.066406 30.484375 -31.265625 C 30.210938 -32.460938 29.785156 -33.347656 29.203125 -33.921875 C 28.617188 -34.503906 27.882812 -34.9375 27 -35.21875 L 27 -35.9375 L 33.875 -35.9375 L 33.875 -35.21875 C 33.019531 -34.9375 32.460938 -34.359375 32.203125 -33.484375 C 31.953125 -32.617188 31.828125 -31.257812 31.828125 -29.40625 L 31.828125 -13.96875 C 31.828125 -10.539062 31.269531 -7.753906 30.15625 -5.609375 C 29.039062 -3.472656 27.515625 -1.914062 25.578125 -0.9375 C 23.648438 0.03125 21.4375 0.515625 18.9375 0.515625 Z M 18.9375 0.515625 "/></g></g><g style="fill:#e49e33;fill-opacity:1;"><g transform="translate(78.686111, 40.599726)"><path style="stroke:none" d="M 2.40625 0 L 2.40625 -0.71875 C 3.269531 -0.988281 3.828125 -1.5625 4.078125 -2.4375 C 4.335938 -3.3125 4.46875 -4.671875 4.46875 -6.515625 L 4.46875 -29.40625 C 4.46875 -31.257812 4.335938 -32.617188 4.078125 -33.484375 C 3.828125 -34.359375 3.269531 -34.9375 2.40625 -35.21875 L 2.40625 -35.9375 L 15.25 -35.9375 C 18.9375 -35.9375 22.035156 -35.40625 24.546875 -34.34375 C 27.066406 -33.28125 29.078125 -31.882812 30.578125 -30.15625 C 32.085938 -28.425781 33.1875 -26.550781 33.875 -24.53125 C 34.5625 -22.507812 34.90625 -20.5625 34.90625 -18.6875 C 34.9375 -14.988281 34.191406 -11.734375 32.671875 -8.921875 C 31.148438 -6.117188 28.992188 -3.929688 26.203125 -2.359375 C 23.410156 -0.785156 20.132812 0 16.375 0 Z M 9.90625 -4.5625 C 9.90625 -3.363281 10.109375 -2.441406 10.515625 -1.796875 C 10.929688 -1.148438 11.84375 -0.828125 13.25 -0.828125 L 16.015625 -0.828125 C 20.148438 -0.828125 23.320312 -2.015625 25.53125 -4.390625 C 27.738281 -6.765625 28.84375 -10.691406 28.84375 -16.171875 C 28.84375 -19.691406 28.226562 -22.878906 27 -25.734375 C 25.769531 -28.597656 23.910156 -30.875 21.421875 -32.5625 C 18.941406 -34.257812 15.785156 -35.109375 11.953125 -35.109375 L 9.90625 -35.109375 Z M 9.90625 -4.5625 "/></g></g><g style="fill:#e49e33;fill-opacity:1;"><g transform="translate(121.341162, 40.599726)"><path style="stroke:none" d="M -1.078125 0 L -1.078125 -0.71875 C -0.285156 -0.988281 0.457031 -1.515625 1.15625 -2.296875 C 1.851562 -3.085938 2.546875 -4.34375 3.234375 -6.0625 L 12.828125 -29.875 C 13.203125 -30.832031 13.171875 -31.753906 12.734375 -32.640625 L 12.0625 -34.078125 L 17.09375 -36.34375 L 29.828125 -6 C 30.546875 -4.320312 31.238281 -3.085938 31.90625 -2.296875 C 32.570312 -1.515625 33.195312 -0.988281 33.78125 -0.71875 L 33.78125 0 L 24.4375 0 L 24.4375 -0.71875 C 25.289062 -0.988281 25.601562 -1.515625 25.375 -2.296875 C 25.15625 -3.085938 24.6875 -4.320312 23.96875 -6 L 20.890625 -13.390625 L 7.1875 -13.390625 L 4.203125 -6.0625 C 3.523438 -4.34375 3.253906 -3.070312 3.390625 -2.25 C 3.523438 -1.4375 4.019531 -0.925781 4.875 -0.71875 L 4.875 0 Z M 7.5 -14.21875 L 20.53125 -14.21875 L 13.90625 -30.078125 Z M 7.5 -14.21875 "/></g></g><g style="fill:#e49e33;fill-opacity:1;"><g transform="translate(159.479339, 40.599726)"><path style="stroke:none" d="M 9.4375 0 L 9.4375 -0.71875 C 10.300781 -0.988281 10.859375 -1.5625 11.109375 -2.4375 C 11.367188 -3.3125 11.5 -4.671875 11.5 -6.515625 L 11.453125 -16.46875 L 3.84375 -30.234375 C 2.988281 -31.835938 2.160156 -33 1.359375 -33.71875 C 0.554688 -34.4375 -0.132812 -34.9375 -0.71875 -35.21875 L -0.71875 -35.9375 L 8.875 -35.9375 L 8.875 -35.21875 C 8.019531 -34.9375 7.769531 -34.4375 8.125 -33.71875 C 8.488281 -33 9.117188 -31.835938 10.015625 -30.234375 L 16.78125 -18.015625 L 23.71875 -30.234375 C 24.601562 -31.835938 24.992188 -33.015625 24.890625 -33.765625 C 24.785156 -34.523438 24.207031 -35.007812 23.15625 -35.21875 L 23.15625 -35.9375 L 29.765625 -35.9375 L 29.765625 -35.21875 C 29.015625 -34.9375 28.210938 -34.4375 27.359375 -33.71875 C 26.503906 -33 25.628906 -31.835938 24.734375 -30.234375 L 16.984375 -16.421875 L 16.984375 -6.515625 C 16.984375 -4.671875 17.113281 -3.3125 17.375 -2.4375 C 17.632812 -1.5625 18.191406 -0.988281 19.046875 -0.71875 L 19.046875 0 Z M 9.4375 0 "/></g></g><g style="fill:#e49e33;fill-opacity:1;"><g transform="translate(193.511267, 40.599726)"><path style="stroke:none" d="M -1.078125 0 L -1.078125 -0.71875 C -0.285156 -0.988281 0.457031 -1.515625 1.15625 -2.296875 C 1.851562 -3.085938 2.546875 -4.34375 3.234375 -6.0625 L 12.828125 -29.875 C 13.203125 -30.832031 13.171875 -31.753906 12.734375 -32.640625 L 12.0625 -34.078125 L 17.09375 -36.34375 L 29.828125 -6 C 30.546875 -4.320312 31.238281 -3.085938 31.90625 -2.296875 C 32.570312 -1.515625 33.195312 -0.988281 33.78125 -0.71875 L 33.78125 0 L 24.4375 0 L 24.4375 -0.71875 C 25.289062 -0.988281 25.601562 -1.515625 25.375 -2.296875 C 25.15625 -3.085938 24.6875 -4.320312 23.96875 -6 L 20.890625 -13.390625 L 7.1875 -13.390625 L 4.203125 -6.0625 C 3.523438 -4.34375 3.253906 -3.070312 3.390625 -2.25 C 3.523438 -1.4375 4.019531 -0.925781 4.875 -0.71875 L 4.875 0 Z M 7.5 -14.21875 L 20.53125 -14.21875 L 13.90625 -30.078125 Z M 7.5 -14.21875 "/></g></g><g style="fill:#e49e33;fill-opacity:1;"><g transform="translate(231.649443, 40.599726)"><path style="stroke:none" d="M 2.40625 0 L 2.40625 -0.71875 C 3.269531 -0.988281 3.828125 -1.5625 4.078125 -2.4375 C 4.335938 -3.3125 4.46875 -4.671875 4.46875 -6.515625 L 4.46875 -29.40625 C 4.46875 -31.257812 4.335938 -32.617188 4.078125 -33.484375 C 3.828125 -34.359375 3.269531 -34.9375 2.40625 -35.21875 L 2.40625 -35.9375 L 11.953125 -35.9375 L 11.953125 -35.21875 C 11.097656 -34.9375 10.539062 -34.359375 10.28125 -33.484375 C 10.03125 -32.617188 9.90625 -31.257812 9.90625 -29.40625 L 9.90625 -17.34375 L 22.375 -30.125 C 24.019531 -31.800781 24.910156 -33.054688 25.046875 -33.890625 C 25.179688 -34.734375 24.703125 -35.242188 23.609375 -35.421875 L 23.609375 -35.9375 L 31.671875 -35.9375 L 31.671875 -35.21875 C 30.640625 -34.9375 29.535156 -34.539062 28.359375 -34.03125 C 27.179688 -33.519531 25.941406 -32.597656 24.640625 -31.265625 L 13.703125 -20.0625 L 14.984375 -20.125 C 16.898438 -20.226562 18.484375 -20.125 19.734375 -19.8125 C 20.984375 -19.5 22.023438 -18.941406 22.859375 -18.140625 C 23.703125 -17.335938 24.460938 -16.25 25.140625 -14.875 C 25.828125 -13.507812 26.566406 -11.800781 27.359375 -9.75 C 28.378906 -7.144531 29.179688 -5.203125 29.765625 -3.921875 C 30.347656 -2.640625 30.851562 -1.785156 31.28125 -1.359375 C 31.707031 -0.929688 32.195312 -0.71875 32.75 -0.71875 C 32.882812 -0.71875 33.007812 -0.71875 33.125 -0.71875 C 33.25 -0.71875 33.378906 -0.734375 33.515625 -0.765625 L 33.515625 0 C 32.929688 0.132812 32.335938 0.226562 31.734375 0.28125 C 31.140625 0.332031 30.570312 0.359375 30.03125 0.359375 C 28.96875 0.359375 28.09375 0.242188 27.40625 0.015625 C 26.71875 -0.203125 26.125 -0.609375 25.625 -1.203125 C 25.132812 -1.804688 24.625 -2.6875 24.09375 -3.84375 C 23.5625 -5.007812 22.90625 -6.535156 22.125 -8.421875 C 21.300781 -10.398438 20.613281 -12.082031 20.0625 -13.46875 C 19.519531 -14.851562 18.984375 -15.960938 18.453125 -16.796875 C 17.921875 -17.640625 17.296875 -18.25 16.578125 -18.625 C 15.859375 -19.007812 14.914062 -19.203125 13.75 -19.203125 L 12.828125 -19.203125 L 9.90625 -16.171875 L 9.90625 -6.515625 C 9.90625 -4.671875 10.03125 -3.3125 10.28125 -2.4375 C 10.539062 -1.5625 11.097656 -0.988281 11.953125 -0.71875 L 11.953125 0 Z M 2.40625 0 "/></g></g><g style="fill:#e49e33;fill-opacity:1;"><g transform="translate(269.890262, 40.599726)"><path style="stroke:none" d="M 2.40625 0 L 2.40625 -0.71875 C 3.269531 -0.988281 3.828125 -1.5625 4.078125 -2.4375 C 4.335938 -3.3125 4.46875 -4.671875 4.46875 -6.515625 L 4.46875 -29.40625 C 4.46875 -31.257812 4.335938 -32.617188 4.078125 -33.484375 C 3.828125 -34.359375 3.269531 -34.9375 2.40625 -35.21875 L 2.40625 -35.9375 L 11.953125 -35.9375 L 11.953125 -35.21875 C 11.097656 -34.9375 10.539062 -34.359375 10.28125 -33.484375 C 10.03125 -32.617188 9.90625 -31.257812 9.90625 -29.40625 L 9.90625 -6.515625 C 9.90625 -4.671875 10.03125 -3.3125 10.28125 -2.4375 C 10.539062 -1.5625 11.097656 -0.988281 11.953125 -0.71875 L 11.953125 0 Z M 2.40625 0 "/></g></g><g style="fill:#e49e33;fill-opacity:1;"><g transform="translate(289.396355, 40.599726)"><path style="stroke:none" d="M 9.65625 0 L 9.65625 -0.71875 C 10.507812 -0.988281 11.0625 -1.5625 11.3125 -2.4375 C 11.570312 -3.3125 11.703125 -4.671875 11.703125 -6.515625 L 11.703125 -35 L 10.109375 -35 C 7.816406 -35 6.019531 -34.613281 4.71875 -33.84375 C 3.414062 -33.082031 2.285156 -31.671875 1.328125 -29.609375 L 0.71875 -29.71875 L 1.03125 -35.9375 L 27.765625 -35.9375 L 28.078125 -29.71875 L 27.453125 -29.609375 C 26.492188 -31.671875 25.363281 -33.082031 24.0625 -33.84375 C 22.769531 -34.613281 20.976562 -35 18.6875 -35 L 17.1875 -35 L 17.1875 -6.515625 C 17.1875 -4.671875 17.316406 -3.3125 17.578125 -2.4375 C 17.835938 -1.5625 18.394531 -0.988281 19.25 -0.71875 L 19.25 0 Z M 9.65625 0 "/></g></g><g style="fill:#e49e33;fill-opacity:1;"><g transform="translate(323.274311, 40.599726)"><path style="stroke:none" d="M -1.078125 0 L -1.078125 -0.71875 C -0.285156 -0.988281 0.457031 -1.515625 1.15625 -2.296875 C 1.851562 -3.085938 2.546875 -4.34375 3.234375 -6.0625 L 12.828125 -29.875 C 13.203125 -30.832031 13.171875 -31.753906 12.734375 -32.640625 L 12.0625 -34.078125 L 17.09375 -36.34375 L 29.828125 -6 C 30.546875 -4.320312 31.238281 -3.085938 31.90625 -2.296875 C 32.570312 -1.515625 33.195312 -0.988281 33.78125 -0.71875 L 33.78125 0 L 24.4375 0 L 24.4375 -0.71875 C 25.289062 -0.988281 25.601562 -1.515625 25.375 -2.296875 C 25.15625 -3.085938 24.6875 -4.320312 23.96875 -6 L 20.890625 -13.390625 L 7.1875 -13.390625 L 4.203125 -6.0625 C 3.523438 -4.34375 3.253906 -3.070312 3.390625 -2.25 C 3.523438 -1.4375 4.019531 -0.925781 4.875 -0.71875 L 4.875 0 Z M 7.5 -14.21875 L 20.53125 -14.21875 L 13.90625 -30.078125 Z M 7.5 -14.21875 "/></g></g></g></g><g transform="matrix(1,0,0,1,57,311)"><g clip-path="url(#9ceaf79221)"><g style="fill:#e49e33;fill-opacity:1;"><g transform="translate(2.113134, 20.054078)"><path style="stroke:none" d="M 23.203125 -14.84375 L 18.234375 0 L 16.015625 0 L 11.953125 -11.859375 L 7.90625 0 L 5.640625 0 L 0.671875 -14.84375 L 2.859375 -14.84375 L 6.875 -2.78125 L 11.046875 -14.84375 L 13 -14.84375 L 17.09375 -2.71875 L 21.1875 -14.84375 Z M 23.203125 -14.84375 "/></g></g><g style="fill:#e49e33;fill-opacity:1;"><g transform="translate(33.73659, 20.054078)"><path style="stroke:none" d="M 11.6875 -3.703125 L 3.796875 -3.703125 L 2.15625 0 L -0.015625 0 L 6.703125 -14.84375 L 8.796875 -14.84375 L 15.546875 0 L 13.3125 0 Z M 10.9375 -5.40625 L 7.734375 -12.671875 L 4.53125 -5.40625 Z M 10.9375 -5.40625 "/></g></g><g style="fill:#e49e33;fill-opacity:1;"><g transform="translate(57.004135, 20.054078)"><path style="stroke:none" d="M 7.90625 -5.125 L 7.90625 0 L 5.8125 0 L 5.8125 -5.171875 L -0.078125 -14.84375 L 2.1875 -14.84375 L 6.9375 -7.015625 L 11.703125 -14.84375 L 13.796875 -14.84375 Z M 7.90625 -5.125 "/></g></g><g style="fill:#e49e33;fill-opacity:1;"><g transform="translate(78.469004, 20.054078)"><path style="stroke:none" d="M 11.6875 -3.703125 L 3.796875 -3.703125 L 2.15625 0 L -0.015625 0 L 6.703125 -14.84375 L 8.796875 -14.84375 L 15.546875 0 L 13.3125 0 Z M 10.9375 -5.40625 L 7.734375 -12.671875 L 4.53125 -5.40625 Z M 10.9375 -5.40625 "/></g></g><g style="fill:#e49e33;fill-opacity:1;"><g transform="translate(101.736548, 20.054078)"><path style="stroke:none" d="M 14.984375 -14.84375 L 14.984375 0 L 13.25 0 L 4.34375 -11.0625 L 4.34375 0 L 2.21875 0 L 2.21875 -14.84375 L 3.96875 -14.84375 L 12.875 -3.78125 L 12.875 -14.84375 Z M 14.984375 -14.84375 "/></g></g><g style="fill:#e49e33;fill-opacity:1;"><g transform="translate(126.70073, 20.054078)"><path style="stroke:none" d="M 12.515625 -7.5 L 14.546875 -7.5 L 14.546875 -1.71875 C 13.804688 -1.113281 12.945312 -0.644531 11.96875 -0.3125 C 11 0.0078125 9.984375 0.171875 8.921875 0.171875 C 7.421875 0.171875 6.070312 -0.15625 4.875 -0.8125 C 3.675781 -1.46875 2.734375 -2.375 2.046875 -3.53125 C 1.359375 -4.6875 1.015625 -5.984375 1.015625 -7.421875 C 1.015625 -8.859375 1.359375 -10.15625 2.046875 -11.3125 C 2.734375 -12.476562 3.679688 -13.382812 4.890625 -14.03125 C 6.097656 -14.6875 7.457031 -15.015625 8.96875 -15.015625 C 10.15625 -15.015625 11.234375 -14.816406 12.203125 -14.421875 C 13.171875 -14.035156 13.992188 -13.46875 14.671875 -12.71875 L 13.359375 -11.40625 C 12.171875 -12.550781 10.734375 -13.125 9.046875 -13.125 C 7.921875 -13.125 6.910156 -12.878906 6.015625 -12.390625 C 5.117188 -11.898438 4.414062 -11.21875 3.90625 -10.34375 C 3.394531 -9.476562 3.140625 -8.503906 3.140625 -7.421875 C 3.140625 -6.347656 3.394531 -5.375 3.90625 -4.5 C 4.414062 -3.632812 5.117188 -2.953125 6.015625 -2.453125 C 6.910156 -1.960938 7.914062 -1.71875 9.03125 -1.71875 C 10.363281 -1.71875 11.523438 -2.035156 12.515625 -2.671875 Z M 12.515625 -7.5 "/></g></g><g style="fill:#e49e33;fill-opacity:1;"><g transform="translate(150.816583, 20.054078)"><path style="stroke:none" d=""/></g></g><g style="fill:#e49e33;fill-opacity:1;"><g transform="translate(164.264871, 20.054078)"><path style="stroke:none" d="M 7.0625 -6.59375 L 4.34375 -3.84375 L 4.34375 0 L 2.21875 0 L 2.21875 -14.84375 L 4.34375 -14.84375 L 4.34375 -6.546875 L 12.40625 -14.84375 L 14.828125 -14.84375 L 8.484375 -8.15625 L 15.21875 0 L 12.75 0 Z M 7.0625 -6.59375 "/></g></g><g style="fill:#e49e33;fill-opacity:1;"><g transform="translate(187.256712, 20.054078)"><path style="stroke:none" d="M 8.375 0.171875 C 6.394531 0.171875 4.851562 -0.390625 3.75 -1.515625 C 2.644531 -2.648438 2.09375 -4.28125 2.09375 -6.40625 L 2.09375 -14.84375 L 4.21875 -14.84375 L 4.21875 -6.484375 C 4.21875 -3.304688 5.609375 -1.71875 8.390625 -1.71875 C 9.753906 -1.71875 10.796875 -2.109375 11.515625 -2.890625 C 12.234375 -3.679688 12.59375 -4.878906 12.59375 -6.484375 L 12.59375 -14.84375 L 14.65625 -14.84375 L 14.65625 -6.40625 C 14.65625 -4.269531 14.101562 -2.640625 13 -1.515625 C 11.894531 -0.390625 10.351562 0.171875 8.375 0.171875 Z M 8.375 0.171875 "/></g></g><g style="fill:#e49e33;fill-opacity:1;"><g transform="translate(211.775523, 20.054078)"><path style="stroke:none" d="M 2.21875 -14.84375 L 4.34375 -14.84375 L 4.34375 -1.84375 L 12.375 -1.84375 L 12.375 0 L 2.21875 0 Z M 2.21875 -14.84375 "/></g></g><g style="fill:#e49e33;fill-opacity:1;"><g transform="translate(232.116379, 20.054078)"><path style="stroke:none" d="M 2.21875 -14.84375 L 4.34375 -14.84375 L 4.34375 0 L 2.21875 0 Z M 2.21875 -14.84375 "/></g></g><g style="fill:#e49e33;fill-opacity:1;"><g transform="translate(246.434192, 20.054078)"><path style="stroke:none" d="M 5.171875 -13 L 0.078125 -13 L 0.078125 -14.84375 L 12.359375 -14.84375 L 12.359375 -13 L 7.265625 -13 L 7.265625 0 L 5.171875 0 Z M 5.171875 -13 "/></g></g></g></g><path style=" stroke:none;fill-rule:nonzero;fill:#e49e33;fill-opacity:1;" d="M 187.429688 196.011719 C 187.183594 196.425781 186.859375 196.789062 186.445312 197.085938 C 186.304688 197.183594 186.148438 197.261719 185.996094 197.339844 L 185.996094 218.070312 L 187.511719 225.800781 L 189.128906 225.800781 L 189.804688 220.488281 L 189.277344 197.519531 C 188.976562 197.40625 188.6875 197.273438 188.421875 197.085938 C 188.003906 196.789062 187.683594 196.425781 187.429688 196.011719 Z M 187.429688 196.011719 "/><path style=" stroke:none;fill-rule:nonzero;fill:#e49e33;fill-opacity:1;" d="M 161.683594 155.132812 L 165.21875 155.132812 L 165.21875 183.519531 L 161.683594 183.519531 Z M 161.683594 155.132812 "/><path style=" stroke:none;fill-rule:nonzero;fill:#e49e33;fill-opacity:1;" d="M 207.945312 161.214844 C 207.730469 161.238281 207.511719 161.238281 207.300781 161.242188 C 206.222656 161.25 205.058594 161.542969 204.40625 162.347656 C 203.550781 163.40625 203.875 164.882812 203.988281 166.207031 C 204.113281 167.734375 203.890625 169.289062 203.328125 170.730469 C 201.59375 169.703125 200.976562 167.644531 200.644531 165.753906 C 200.316406 163.863281 200.078125 161.824219 198.738281 160.371094 C 198.171875 159.757812 197.042969 159.324219 196.507812 159.964844 C 196.355469 160.144531 196.292969 160.371094 196.25 160.597656 C 195.65625 163.554688 197.421875 166.550781 197.058594 169.539062 C 196.972656 170.242188 196.628906 171.0625 195.878906 171.175781 C 195.019531 171.308594 194.402344 170.414062 194.183594 169.628906 C 193.335938 166.601562 194.601562 163.167969 193.101562 160.367188 C 192.625 159.484375 191.585938 158.648438 190.609375 159.023438 C 189.925781 159.285156 189.613281 160.019531 189.46875 160.691406 C 188.886719 163.398438 189.800781 166.347656 188.644531 168.890625 C 188.632812 168.777344 188.625 168.664062 188.617188 168.550781 L 188.953125 183.335938 L 207.945312 183.335938 Z M 207.945312 161.214844 "/><path style=" stroke:none;fill-rule:nonzero;fill:#e49e33;fill-opacity:1;" d="M 161.683594 150.703125 L 165.21875 150.703125 L 165.21875 153.546875 L 161.683594 153.546875 Z M 161.683594 150.703125 "/><path style=" stroke:none;fill-rule:nonzero;fill:#e49e33;fill-opacity:1;" d="M 209.917969 154.953125 L 213.453125 154.953125 L 213.453125 183.335938 L 209.917969 183.335938 Z M 209.917969 154.953125 "/><path style=" stroke:none;fill-rule:nonzero;fill:#e49e33;fill-opacity:1;" d="M 209.917969 150.523438 L 213.453125 150.523438 L 213.453125 153.367188 L 209.917969 153.367188 Z M 209.917969 150.523438 "/><path style=" stroke:none;fill-rule:nonzero;fill:#e49e33;fill-opacity:1;" d="M 185.074219 160.691406 C 184.933594 160.019531 184.636719 159.285156 183.980469 159.023438 C 183.042969 158.648438 182.050781 159.484375 181.597656 160.367188 C 180.15625 163.167969 181.371094 166.601562 180.558594 169.628906 C 180.347656 170.414062 179.757812 171.308594 178.9375 171.175781 C 178.21875 171.0625 177.890625 170.242188 177.808594 169.539062 C 177.460938 166.550781 179.148438 163.554688 178.582031 160.597656 C 178.539062 160.371094 178.480469 160.144531 178.332031 159.964844 C 177.820312 159.324219 176.742188 159.757812 176.199219 160.371094 C 174.914062 161.824219 174.6875 163.863281 174.371094 165.753906 C 174.058594 167.644531 173.464844 169.703125 171.800781 170.730469 C 171.269531 169.289062 171.050781 167.734375 171.171875 166.207031 C 171.28125 164.882812 171.59375 163.40625 170.773438 162.347656 C 170.148438 161.542969 169.035156 161.25 168 161.242188 C 167.734375 161.238281 167.449219 161.234375 167.195312 161.175781 L 167.195312 183.515625 L 185.996094 183.515625 L 185.996094 167.367188 C 185.949219 167.875 185.914062 168.386719 185.863281 168.890625 C 184.757812 166.347656 185.628906 163.398438 185.074219 160.691406 Z M 185.074219 160.691406 "/><g clip-rule="nonzero" clip-path="url(#e14a67ffd4)"><path style=" stroke:none;fill-rule:nonzero;fill:#e49e33;fill-opacity:1;" d="M 256.234375 96.570312 C 247.875 86.28125 236.433594 72.171875 225.273438 58.417969 C 225.273438 58.476562 225.269531 58.53125 225.253906 58.589844 C 225.15625 59.097656 224.859375 59.535156 224.5625 59.953125 C 222.9375 62.265625 221.308594 64.578125 219.679688 66.890625 C 219.582031 65.058594 219.484375 63.222656 219.386719 61.390625 C 216.824219 63.410156 213.492188 64.378906 210.273438 64.042969 C 212.472656 61.957031 215.035156 60.277344 217.808594 59.109375 C 215.761719 58.597656 213.601562 58.574219 211.542969 59.039062 C 211.03125 57.886719 211.878906 56.5 212.996094 55.96875 C 214.117188 55.433594 215.402344 55.503906 216.636719 55.511719 C 218.054688 55.519531 219.480469 55.433594 220.882812 55.613281 C 221.289062 55.664062 221.890625 55.78125 222.519531 55.96875 C 222.894531 56.082031 223.277344 56.222656 223.632812 56.390625 C 204.910156 33.3125 187.480469 11.832031 187.429688 11.890625 C 187.386719 11.832031 169.882812 33.398438 151.121094 56.53125 C 151.550781 56.296875 152.035156 56.113281 152.503906 55.96875 C 153.132812 55.78125 153.734375 55.664062 154.136719 55.613281 C 155.542969 55.433594 156.96875 55.519531 158.386719 55.511719 C 159.617188 55.503906 160.910156 55.433594 162.027344 55.96875 C 163.144531 56.5 163.988281 57.886719 163.480469 59.039062 C 161.421875 58.574219 159.261719 58.597656 157.214844 59.109375 C 159.988281 60.277344 162.550781 61.957031 164.75 64.042969 C 161.535156 64.378906 158.203125 63.410156 155.636719 61.390625 C 155.539062 63.222656 155.441406 65.058594 155.34375 66.890625 C 153.714844 64.578125 152.089844 62.265625 150.460938 59.953125 C 150.167969 59.535156 149.863281 59.097656 149.765625 58.589844 C 149.746094 58.464844 149.738281 58.34375 149.746094 58.222656 C 138.539062 72.035156 127.027344 86.230469 118.628906 96.570312 C 111.890625 104.859375 104.761719 114.59375 106.777344 124.941406 C 108.996094 136.355469 121.515625 143.535156 125.058594 154.605469 C 125.09375 154.707031 125.125 154.808594 125.15625 154.910156 C 126.632812 159.773438 126.214844 164.953125 126.421875 170.015625 C 126.722656 177.523438 128.996094 183.816406 136.117188 187.371094 C 143.5625 191.089844 151.949219 192.535156 160.121094 193.9375 C 167.15625 195.140625 174.195312 196.347656 181.230469 197.550781 C 182.824219 197.824219 184.601562 198.050781 185.996094 197.339844 L 185.996094 187.210938 C 184.382812 187.578125 182.703125 187.585938 181.042969 187.570312 C 169.667969 187.457031 158.304688 186.53125 147.066406 184.804688 C 145.828125 184.617188 144.503906 184.375 143.605469 183.523438 C 142.777344 182.734375 142.464844 181.566406 142.3125 180.445312 C 141.59375 175.21875 143.921875 165.710938 150.984375 166.339844 C 152.671875 166.492188 154.316406 167.457031 155.042969 168.953125 C 155.769531 170.445312 155.421875 172.429688 154.097656 173.457031 C 152.703125 174.542969 150.628906 174.453125 148.957031 174.976562 C 148.277344 175.191406 147.660156 175.507812 147.1875 176.050781 C 146.175781 177.207031 146.304688 179.027344 147.148438 180.308594 C 147.988281 181.585938 149.390625 182.414062 150.824219 183.011719 C 153.757812 184.238281 156.957031 184.695312 160.132812 184.996094 C 160.644531 185.042969 161.164062 185.074219 161.683594 185.117188 L 161.683594 183.515625 L 159.707031 183.515625 L 159.707031 149.117188 L 186.332031 149.117188 L 186.355469 147.96875 C 180.335938 147.980469 174.316406 147.988281 168.300781 148 C 169.351562 148 171.515625 145.808594 172.316406 145.15625 C 173.640625 144.0625 174.890625 142.875 176.050781 141.605469 C 178.421875 139.007812 180.414062 136.066406 181.9375 132.898438 C 184.964844 126.597656 186.210938 119.671875 187.003906 112.773438 L 187.511719 85.296875 L 187.511719 77.445312 L 188.167969 72.433594 L 188.875 86.816406 L 188.542969 115.839844 C 189.363281 121.648438 190.648438 127.40625 193.203125 132.71875 C 194.726562 135.886719 196.71875 138.828125 199.085938 141.425781 C 200.25 142.695312 201.496094 143.882812 202.824219 144.972656 C 203.621094 145.628906 205.789062 147.816406 206.835938 147.820312 C 200.621094 147.808594 194.402344 147.796875 188.183594 147.785156 L 188.171875 148.9375 L 215.433594 148.9375 L 215.433594 183.335938 L 213.457031 183.335938 L 213.457031 185.109375 C 213.9375 185.070312 214.414062 185.039062 214.890625 184.996094 C 218.066406 184.695312 221.269531 184.238281 224.199219 183.011719 C 225.632812 182.414062 227.035156 181.585938 227.878906 180.308594 C 228.71875 179.027344 228.847656 177.207031 227.839844 176.050781 C 227.363281 175.507812 226.75 175.191406 226.066406 174.976562 C 224.394531 174.453125 222.320312 174.542969 220.925781 173.457031 C 219.597656 172.429688 219.257812 170.445312 219.984375 168.953125 C 220.710938 167.457031 222.351562 166.492188 224.042969 166.339844 C 231.101562 165.710938 233.429688 175.21875 232.710938 180.445312 C 232.554688 181.566406 232.246094 182.734375 231.417969 183.523438 C 230.515625 184.375 229.195312 184.617188 227.957031 184.804688 C 216.71875 186.53125 205.355469 187.457031 193.980469 187.570312 C 192.324219 187.585938 190.652344 187.578125 189.042969 187.210938 L 189.277344 197.519531 C 190.601562 198 192.191406 197.796875 193.632812 197.550781 C 200.667969 196.347656 207.707031 195.140625 214.742188 193.9375 C 222.914062 192.535156 231.304688 191.089844 238.746094 187.371094 C 245.867188 183.816406 248.140625 177.523438 248.441406 170.015625 C 248.648438 164.953125 248.234375 159.773438 249.707031 154.910156 C 249.738281 154.808594 249.769531 154.707031 249.804688 154.605469 C 253.347656 143.535156 265.867188 136.355469 268.085938 124.941406 C 270.101562 114.59375 262.972656 104.859375 256.234375 96.570312 Z M 180.53125 188.535156 C 181.335938 188.546875 182.25 188.621094 182.734375 189.277344 C 183.128906 189.8125 183.082031 190.589844 182.773438 191.179688 C 181.960938 192.730469 179.917969 192.957031 178.199219 192.988281 C 175.226562 193.046875 171.824219 193.582031 168.90625 193.058594 C 167.742188 192.851562 166.484375 192.359375 165.480469 191.722656 C 164.960938 191.390625 163.582031 189.132812 163.039062 189.183594 C 168.855469 188.65625 174.695312 188.441406 180.53125 188.535156 Z M 209.542969 191.722656 C 208.539062 192.359375 207.28125 192.851562 206.117188 193.058594 C 203.199219 193.582031 199.796875 193.046875 196.824219 192.988281 C 195.105469 192.957031 193.0625 192.730469 192.25 191.179688 C 191.941406 190.589844 191.894531 189.8125 192.289062 189.277344 C 192.773438 188.621094 193.691406 188.546875 194.492188 188.535156 C 200.328125 188.441406 206.167969 188.65625 211.980469 189.183594 C 211.441406 189.132812 210.0625 191.390625 209.542969 191.722656 Z M 217.230469 67.601562 C 219.726562 69.300781 221.496094 71.945312 223.53125 74.242188 C 226.835938 77.984375 230.710938 81.199219 234.90625 83.734375 C 237.363281 85.21875 241.542969 87.664062 239.972656 91.234375 C 237.929688 95.867188 230.132812 89.789062 228.078125 88.113281 C 225.90625 86.34375 223.773438 84.277344 222.917969 81.410156 L 223.117188 81.371094 C 222.644531 80.300781 219.742188 81.296875 218.929688 81.324219 C 216.554688 81.402344 212.476562 81 212.03125 77.945312 C 211.726562 75.878906 213.636719 73.210938 215.84375 73.816406 C 212.511719 72.558594 208.425781 71.148438 204.882812 72.300781 C 201.878906 73.277344 200.308594 76.695312 200.789062 79.761719 C 201.085938 81.636719 201.878906 83.371094 202.664062 85.078125 C 203.921875 87.816406 205.355469 90.746094 207.921875 92.078125 C 206.128906 91.03125 204.125 90.5 202.195312 89.777344 C 200.269531 89.058594 198.335938 88.082031 197.046875 86.390625 C 195.898438 84.882812 195.359375 82.925781 195.246094 80.984375 C 195.019531 76.972656 196.578125 72.925781 199.25 70.101562 C 201.921875 67.277344 205.644531 65.671875 209.398438 65.511719 C 212.128906 65.394531 214.929688 66.035156 217.230469 67.601562 Z M 223.917969 90.730469 L 223.300781 90.628906 C 219.519531 91.257812 215.421875 90.265625 211.796875 89.152344 C 207.808594 87.921875 204.625 84.320312 203.554688 80.242188 C 203.136719 78.65625 203.070312 76.800781 204.097656 75.542969 C 204.476562 75.078125 204.996094 74.71875 205.582031 74.621094 C 206.324219 74.496094 207.101562 74.808594 207.65625 75.332031 C 208.585938 76.210938 208.910156 77.574219 209.023438 78.867188 C 209.136719 80.15625 209.09375 81.480469 209.480469 82.714844 C 210.015625 84.417969 211.335938 85.769531 212.835938 86.679688 C 214.492188 87.6875 216.382812 88.171875 218.136719 88.910156 C 219.992188 89.691406 221.960938 90.300781 223.917969 90.730469 Z M 198.761719 58.261719 C 197.894531 57.53125 196.769531 58.289062 195.804688 58.253906 C 194.425781 58.203125 193.449219 57.050781 193.300781 55.699219 C 193.023438 53.191406 194.875 51.292969 197.203125 50.921875 C 199.5625 50.542969 201.851562 51.890625 203.050781 53.945312 C 204.816406 56.976562 203.75 60.777344 201.992188 63.542969 C 200.890625 65.277344 199.429688 66.722656 197.808594 67.949219 C 196.730469 68.765625 195.582031 69.519531 194.609375 70.460938 C 194.355469 70.828125 194.109375 71.191406 193.875 71.550781 L 193.390625 71.902344 C 193.742188 71.363281 194.15625 70.894531 194.609375 70.460938 C 196.730469 67.332031 199.195312 63.914062 199.3125 60.054688 C 199.332031 59.40625 199.25 58.675781 198.761719 58.261719 Z M 210.972656 53.578125 C 210.597656 55.4375 209.574219 57.0625 209.15625 58.878906 C 208.808594 60.398438 209.40625 62.40625 208.042969 63.542969 L 207.722656 62.660156 C 207.035156 57.878906 209.675781 52.460938 206.34375 48.257812 C 204.824219 46.351562 202.785156 46.929688 200.8125 47.800781 C 199.113281 48.550781 197.292969 49.253906 195.402344 49.070312 C 190.890625 48.632812 192.71875 43.414062 195.144531 41.617188 C 199.191406 38.625 204.476562 39.601562 207.964844 43.054688 C 210.800781 45.863281 211.765625 49.691406 210.972656 53.578125 Z M 190.726562 18.117188 C 190.992188 18.125 193.5625 21.460938 193.496094 21.550781 C 193.496094 21.550781 192.65625 22.695312 192.898438 22.980469 C 193.136719 23.265625 200.175781 30.875 200.277344 30.988281 C 201.59375 32.414062 201.644531 34.6875 200.804688 36.347656 C 200.347656 37.246094 199.695312 38.03125 199.054688 38.808594 C 198.398438 39.597656 197.480469 40.054688 196.550781 40.445312 C 195.566406 40.863281 194.867188 41.148438 194.054688 41.195312 C 193.550781 41.226562 193.007812 41.167969 192.335938 40.996094 C 190.972656 40.003906 190.375 39.011719 191.128906 37.261719 C 191.464844 36.480469 192.617188 34.742188 193.496094 34.449219 C 194.277344 34.191406 195.320312 34.15625 195.820312 33.421875 C 195.871094 33.347656 195.917969 33.261719 195.90625 33.175781 C 195.898438 33.085938 195.828125 33.015625 195.765625 32.949219 C 195.28125 32.4375 194.785156 31.941406 194.261719 31.464844 L 190.46875 27.207031 L 189.859375 18.5 C 189.859375 18.5 190.710938 18.125 190.726562 18.117188 Z M 174.746094 30.988281 C 174.847656 30.875 181.886719 23.265625 182.128906 22.980469 C 182.367188 22.695312 181.527344 21.550781 181.527344 21.550781 C 181.460938 21.460938 184.035156 18.125 184.296875 18.117188 C 184.316406 18.125 185.167969 18.5 185.167969 18.5 L 184.554688 27.207031 L 180.761719 31.464844 C 180.238281 31.941406 179.746094 32.4375 179.257812 32.949219 C 179.195312 33.015625 179.128906 33.085938 179.117188 33.175781 C 179.105469 33.261719 179.152344 33.347656 179.203125 33.421875 C 179.707031 34.15625 180.746094 34.191406 181.527344 34.449219 C 182.40625 34.742188 183.554688 36.480469 183.894531 37.261719 C 184.652344 39.011719 184.050781 40.003906 182.6875 40.996094 C 182.011719 41.167969 181.472656 41.226562 180.972656 41.195312 C 180.160156 41.148438 179.457031 40.863281 178.476562 40.445312 C 177.546875 40.054688 176.625 39.597656 175.972656 38.808594 C 175.324219 38.03125 174.675781 37.246094 174.21875 36.347656 C 173.382812 34.6875 173.425781 32.414062 174.746094 30.988281 Z M 164.046875 53.578125 C 163.257812 49.691406 164.222656 45.863281 167.058594 43.054688 C 170.546875 39.601562 175.835938 38.625 179.878906 41.617188 C 182.304688 43.414062 184.132812 48.632812 179.621094 49.070312 C 177.730469 49.253906 175.910156 48.550781 174.210938 47.800781 C 172.238281 46.929688 170.199219 46.351562 168.679688 48.257812 C 165.347656 52.460938 167.988281 57.878906 167.300781 62.660156 L 166.976562 63.542969 C 165.621094 62.40625 166.214844 60.398438 165.867188 58.878906 C 165.453125 57.0625 164.429688 55.4375 164.046875 53.578125 Z M 175.714844 60.054688 C 175.828125 63.914062 178.292969 67.332031 180.417969 70.460938 C 180.863281 70.894531 181.28125 71.363281 181.632812 71.902344 L 181.148438 71.550781 C 180.914062 71.191406 180.664062 70.828125 180.417969 70.460938 C 179.441406 69.519531 178.292969 68.765625 177.214844 67.949219 C 175.597656 66.722656 174.136719 65.277344 173.027344 63.542969 C 171.269531 60.777344 170.207031 56.976562 171.972656 53.945312 C 173.167969 51.890625 175.460938 50.542969 177.820312 50.921875 C 180.148438 51.292969 182.003906 53.191406 181.722656 55.699219 C 181.574219 57.050781 180.597656 58.203125 179.21875 58.253906 C 178.253906 58.289062 177.128906 57.53125 176.261719 58.261719 C 175.773438 58.675781 175.695312 59.40625 175.714844 60.054688 Z M 140.121094 83.734375 C 144.3125 81.199219 148.183594 77.984375 151.496094 74.242188 C 153.523438 71.945312 155.296875 69.300781 157.792969 67.601562 C 160.097656 66.035156 162.894531 65.394531 165.625 65.511719 C 169.378906 65.671875 173.101562 67.277344 175.773438 70.101562 C 178.449219 72.925781 180.003906 76.972656 179.773438 80.984375 C 179.664062 82.925781 179.125 84.882812 177.976562 86.390625 C 176.6875 88.082031 174.753906 89.058594 172.828125 89.777344 C 170.902344 90.5 168.894531 91.03125 167.105469 92.078125 C 169.667969 90.746094 171.101562 87.816406 172.359375 85.078125 C 173.144531 83.371094 173.9375 81.636719 174.234375 79.761719 C 174.714844 76.695312 173.144531 73.277344 170.140625 72.300781 C 166.597656 71.148438 162.511719 72.558594 159.179688 73.816406 C 161.386719 73.210938 163.296875 75.878906 162.996094 77.945312 C 162.546875 81 158.46875 81.402344 156.09375 81.324219 C 155.28125 81.296875 152.375 80.300781 151.90625 81.371094 L 152.105469 81.410156 C 151.253906 84.277344 149.121094 86.34375 146.945312 88.113281 C 144.890625 89.789062 137.09375 95.867188 135.050781 91.234375 C 133.480469 87.664062 137.664062 85.21875 140.121094 83.734375 Z M 163.226562 89.152344 C 159.605469 90.265625 155.503906 91.257812 151.722656 90.628906 L 151.105469 90.730469 C 153.0625 90.300781 155.03125 89.691406 156.886719 88.910156 C 158.644531 88.171875 160.53125 87.6875 162.1875 86.679688 C 163.691406 85.769531 165.007812 84.417969 165.542969 82.714844 C 165.929688 81.480469 165.886719 80.15625 166.003906 78.867188 C 166.113281 77.574219 166.4375 76.210938 167.367188 75.332031 C 167.921875 74.808594 168.695312 74.496094 169.441406 74.621094 C 170.023438 74.71875 170.550781 75.078125 170.925781 75.542969 C 171.953125 76.800781 171.886719 78.65625 171.46875 80.242188 C 170.398438 84.320312 167.214844 87.921875 163.226562 89.152344 Z M 116.90625 126.265625 C 116.785156 127.265625 116.707031 128.269531 116.6875 129.273438 L 115.453125 129.035156 C 115.9375 128.113281 116.417969 127.1875 116.90625 126.265625 C 117.523438 121.015625 119.484375 115.933594 122.570312 111.6875 C 128.65625 103.316406 137.175781 96.25 146.996094 93.105469 C 155.363281 90.425781 169.707031 90.148438 174.953125 99.054688 C 176.699219 102.015625 177.6875 108.019531 173.925781 109.882812 C 167.144531 113.234375 165.667969 102.0625 161.550781 99.789062 C 158.625 98.171875 155.042969 98.496094 151.910156 99.195312 C 145.039062 100.730469 138.769531 104.488281 132.738281 108.039062 C 125.917969 112.050781 122.03125 116.480469 118.316406 123.574219 C 117.84375 124.46875 117.375 125.367188 116.90625 126.265625 Z M 119.75 131.007812 C 120.546875 130.050781 121.34375 129.070312 122.152344 128.09375 C 125.109375 122.414062 128.519531 116.925781 133.535156 112.941406 C 138.410156 109.066406 144.582031 105.980469 150.863281 104.875 C 154.570312 104.222656 158.953125 104.023438 162.601562 105.097656 C 166.324219 106.195312 170.734375 110.664062 165.785156 113.960938 C 164.027344 115.128906 161.773438 115.1875 159.695312 114.878906 C 151.941406 113.71875 143.902344 113 136.433594 115.984375 C 130.527344 118.347656 126.195312 123.210938 122.152344 128.09375 C 121.261719 129.800781 120.414062 131.523438 119.578125 133.230469 Z M 121.992188 132.203125 C 121.460938 132.691406 120.929688 133.175781 120.402344 133.664062 L 120.914062 132.558594 C 121.277344 132.453125 121.632812 132.324219 121.992188 132.203125 C 123.421875 130.894531 124.851562 129.582031 126.28125 128.273438 C 129.851562 125 133.480469 121.6875 137.769531 119.496094 C 144.113281 116.253906 152.941406 113.785156 160.050781 115.25 C 168.675781 117.03125 169.46875 133.527344 162.386719 137.628906 C 160.871094 138.507812 156.296875 139.933594 154.949219 138.0625 C 154.285156 137.136719 154.640625 135.847656 155.007812 134.761719 C 156.601562 130.03125 157.9375 122.734375 151.707031 121.28125 C 147.007812 120.183594 141.554688 123.4375 137.378906 125.222656 C 132.199219 127.4375 127.324219 130.445312 121.992188 132.203125 Z M 141.71875 173.066406 C 141.199219 174.941406 141.515625 176.96875 141.0625 178.859375 C 137.367188 174.125 142.882812 167.546875 140.929688 162.203125 C 140.605469 161.3125 140.222656 160.417969 140.152344 159.46875 C 139.992188 157.238281 142.308594 155.203125 144.445312 155.667969 C 153.449219 157.628906 142.824219 169.050781 141.71875 173.066406 Z M 233.960938 178.859375 C 233.507812 176.96875 233.820312 174.941406 233.308594 173.066406 C 232.199219 169.050781 221.574219 157.628906 230.578125 155.667969 C 232.714844 155.203125 235.03125 157.238281 234.871094 159.46875 C 234.800781 160.417969 234.421875 161.3125 234.097656 162.203125 C 232.140625 167.546875 237.660156 174.125 233.960938 178.859375 Z M 238.65625 136.492188 C 238.503906 140.761719 236.304688 144.902344 232.890625 147.359375 C 229.945312 149.480469 226.242188 150.328125 222.640625 150.191406 C 213.445312 149.84375 205.289062 143.328125 200.527344 135.269531 C 195.769531 127.210938 193.871094 117.75 192.457031 108.445312 C 188.957031 85.496094 187.925781 62.265625 187.511719 39.019531 C 187.097656 62.265625 186.066406 85.496094 182.570312 108.445312 C 181.152344 117.75 179.253906 127.210938 174.492188 135.269531 C 169.734375 143.328125 161.578125 149.84375 152.382812 150.191406 C 148.78125 150.328125 145.078125 149.480469 142.128906 147.359375 C 138.71875 144.902344 136.519531 140.761719 136.367188 136.492188 C 136.214844 132.226562 138.109375 127.929688 141.335938 125.226562 C 143.074219 123.777344 145.332031 122.753906 147.527344 123.199219 C 149.722656 123.640625 151.597656 125.972656 150.992188 128.179688 C 150.261719 130.855469 146.957031 131.648438 145.414062 133.746094 C 145.234375 133.984375 145.082031 134.242188 144.957031 134.507812 C 143.109375 138.332031 146.085938 142.273438 149.390625 143.746094 C 154.234375 145.894531 160.089844 144.246094 164.167969 140.820312 C 168.25 137.394531 170.847656 132.472656 172.910156 127.5 C 180.929688 108.136719 182.253906 86.667969 183.472656 65.675781 C 183.984375 56.863281 184.496094 48.054688 185.003906 39.242188 C 185.261719 34.839844 185.515625 30.433594 185.769531 26.027344 C 185.902344 23.773438 186.03125 21.519531 186.164062 19.265625 C 186.222656 18.203125 185.789062 14.492188 187.511719 15.382812 C 189.230469 14.492188 188.796875 18.203125 188.859375 19.265625 C 188.992188 21.519531 189.121094 23.773438 189.25 26.027344 C 189.507812 30.433594 189.765625 34.839844 190.019531 39.242188 C 190.53125 48.054688 191.039062 56.863281 191.550781 65.675781 C 192.769531 86.667969 194.09375 108.136719 202.117188 127.5 C 204.175781 132.472656 206.773438 137.394531 210.855469 140.820312 C 214.933594 144.246094 220.789062 145.894531 225.632812 143.746094 C 228.9375 142.273438 231.914062 138.332031 230.066406 134.507812 C 229.941406 134.242188 229.785156 133.984375 229.609375 133.746094 C 228.0625 131.648438 224.761719 130.855469 224.027344 128.179688 C 223.425781 125.972656 225.300781 123.640625 227.496094 123.199219 C 229.691406 122.753906 231.953125 123.777344 233.683594 125.226562 C 236.917969 127.929688 238.8125 132.226562 238.65625 136.492188 Z M 253.03125 132.203125 C 247.703125 130.445312 242.824219 127.4375 237.644531 125.222656 C 233.46875 123.4375 228.019531 120.183594 223.316406 121.28125 C 217.085938 122.734375 218.421875 130.03125 220.015625 134.761719 C 220.382812 135.847656 220.738281 137.136719 220.070312 138.0625 C 218.726562 139.933594 214.15625 138.507812 212.632812 137.628906 C 205.550781 133.527344 206.351562 117.03125 214.96875 115.25 C 222.082031 113.785156 230.910156 116.253906 237.257812 119.496094 C 241.542969 121.6875 245.171875 125 248.742188 128.273438 C 250.171875 129.582031 251.605469 130.894531 253.03125 132.203125 C 253.390625 132.324219 253.746094 132.453125 254.113281 132.558594 L 254.621094 133.664062 C 254.09375 133.175781 253.5625 132.691406 253.03125 132.203125 Z M 252.871094 128.09375 C 248.828125 123.210938 244.496094 118.347656 238.589844 115.984375 C 231.121094 113 223.078125 113.71875 215.328125 114.878906 C 213.25 115.1875 211 115.128906 209.242188 113.960938 C 204.289062 110.664062 208.699219 106.195312 212.425781 105.097656 C 216.070312 104.023438 220.449219 104.222656 224.160156 104.875 C 230.4375 105.980469 236.613281 109.066406 241.492188 112.941406 C 246.5 116.925781 249.914062 122.414062 252.871094 128.09375 C 253.683594 129.070312 254.476562 130.050781 255.273438 131.007812 L 255.445312 133.230469 C 254.609375 131.523438 253.761719 129.800781 252.871094 128.09375 Z M 258.332031 129.273438 C 258.3125 128.269531 258.238281 127.265625 258.121094 126.265625 C 257.648438 125.367188 257.179688 124.46875 256.710938 123.574219 C 252.992188 116.480469 249.105469 112.050781 242.285156 108.039062 C 236.253906 104.488281 229.984375 100.730469 223.113281 99.195312 C 219.980469 98.496094 216.402344 98.171875 213.472656 99.789062 C 209.355469 102.0625 207.878906 113.234375 201.101562 109.882812 C 197.335938 108.019531 198.328125 102.015625 200.070312 99.054688 C 205.316406 90.148438 219.660156 90.425781 228.027344 93.105469 C 237.847656 96.25 246.367188 103.316406 252.457031 111.6875 C 255.542969 115.933594 257.5 121.015625 258.121094 126.265625 C 258.605469 127.1875 259.085938 128.113281 259.570312 129.035156 Z M 258.332031 129.273438 "/></g><path style=" stroke:none;fill-rule:nonzero;fill:#e49e33;fill-opacity:1;" d="M 207.945312 150.523438 L 188.203125 150.523438 L 188.265625 153.367188 L 207.945312 153.367188 Z M 207.945312 150.523438 "/><path style=" stroke:none;fill-rule:nonzero;fill:#e49e33;fill-opacity:1;" d="M 167.195312 153.546875 L 186.25 153.546875 L 186.304688 150.703125 L 167.195312 150.703125 Z M 167.195312 153.546875 "/><path style=" stroke:none;fill-rule:nonzero;fill:#e49e33;fill-opacity:1;" d="M 189.007812 185.648438 L 189.011719 185.984375 C 192.9375 185.78125 196.867188 185.722656 200.796875 185.648438 Z M 189.007812 185.648438 "/><path style=" stroke:none;fill-rule:nonzero;fill:#e49e33;fill-opacity:1;" d="M 185.996094 185.984375 L 185.996094 185.828125 L 182.113281 185.828125 C 183.410156 185.867188 184.703125 185.917969 185.996094 185.984375 Z M 185.996094 185.984375 "/><path style=" stroke:none;fill-rule:nonzero;fill:#e49e33;fill-opacity:1;" d="M 149.746094 58.222656 C 150.203125 57.660156 150.660156 57.09375 151.121094 56.53125 C 150.363281 56.9375 149.78125 57.492188 149.746094 58.222656 Z M 149.746094 58.222656 "/><path style=" stroke:none;fill-rule:nonzero;fill:#e49e33;fill-opacity:1;" d="M 186.140625 185.988281 C 186.09375 185.984375 186.046875 185.984375 185.996094 185.984375 L 185.996094 187.210938 C 186.050781 187.199219 186.105469 187.191406 186.164062 187.175781 C 186.15625 186.777344 186.148438 186.382812 186.140625 185.988281 Z M 186.140625 185.988281 "/><path style=" stroke:none;fill-rule:nonzero;fill:#e49e33;fill-opacity:1;" d="M 188.882812 185.988281 C 188.875 186.382812 188.867188 186.777344 188.859375 187.175781 C 188.921875 187.191406 188.980469 187.199219 189.042969 187.210938 L 189.011719 185.984375 C 188.972656 185.984375 188.925781 185.988281 188.882812 185.988281 Z M 188.882812 185.988281 "/><path style=" stroke:none;fill-rule:nonzero;fill:#e49e33;fill-opacity:1;" d="M 187.550781 150.703125 L 187.550781 149.117188 L 186.332031 149.117188 L 186.304688 150.703125 Z M 187.550781 150.703125 "/><path style=" stroke:none;fill-rule:nonzero;fill:#e49e33;fill-opacity:1;" d="M 186.375 154.542969 C 186.382812 154.738281 186.382812 154.9375 186.386719 155.132812 L 187.429688 155.132812 L 187.429688 153.546875 L 186.25 153.546875 L 186.234375 154.539062 C 186.28125 154.539062 186.328125 154.539062 186.375 154.542969 Z M 186.375 154.542969 "/><path style=" stroke:none;fill-rule:nonzero;fill:#e49e33;fill-opacity:1;" d="M 161.335938 149.117188 L 161.683594 149.117188 L 161.683594 150.703125 L 161.335938 150.703125 Z M 161.335938 149.117188 "/><path style=" stroke:none;fill-rule:nonzero;fill:#e49e33;fill-opacity:1;" d="M 161.21875 153.546875 L 161.683594 153.546875 L 161.683594 155.132812 L 161.21875 155.132812 Z M 161.21875 153.546875 "/><path style=" stroke:none;fill-rule:nonzero;fill:#e49e33;fill-opacity:1;" d="M 187.269531 110.367188 C 187.183594 111.167969 187.097656 111.96875 187.003906 112.773438 L 186.355469 147.96875 C 186.640625 147.96875 186.921875 147.96875 187.210938 147.96875 C 187.230469 135.433594 187.25 122.902344 187.269531 110.367188 Z M 187.269531 110.367188 "/><path style=" stroke:none;fill-rule:nonzero;fill:#e49e33;fill-opacity:1;" d="M 165.21875 185.828125 L 167.195312 185.828125 L 167.195312 185.996094 L 165.21875 185.996094 Z M 165.21875 185.828125 "/><path style=" stroke:none;fill-rule:nonzero;fill:#e49e33;fill-opacity:1;" d="M 165.21875 149.285156 L 167.195312 149.285156 L 167.195312 150.703125 L 165.21875 150.703125 Z M 165.21875 149.285156 "/><path style=" stroke:none;fill-rule:nonzero;fill:#e49e33;fill-opacity:1;" d="M 166.957031 155.027344 C 167.03125 154.945312 167.113281 154.875 167.195312 154.808594 L 167.195312 153.546875 L 165.21875 153.546875 L 165.21875 155.132812 L 166.875 155.132812 C 166.902344 155.101562 166.929688 155.058594 166.957031 155.027344 Z M 166.957031 155.027344 "/><path style=" stroke:none;fill-rule:nonzero;fill:#e49e33;fill-opacity:1;" d="M 185.996094 183.515625 L 187.191406 183.515625 L 187.191406 185.824219 L 185.996094 185.824219 Z M 185.996094 183.515625 "/><path style=" stroke:none;fill-rule:nonzero;fill:#e49e33;fill-opacity:1;" d="M 165.21875 185.828125 L 165.21875 185.351562 C 164.039062 185.289062 162.859375 185.210938 161.683594 185.117188 L 161.683594 185.828125 Z M 165.21875 185.828125 "/><path style=" stroke:none;fill-rule:nonzero;fill:#e49e33;fill-opacity:1;" d="M 167.195312 185.828125 L 182.113281 185.828125 C 177.144531 185.667969 172.164062 185.652344 167.195312 185.449219 Z M 167.195312 185.828125 "/><path style=" stroke:none;fill-rule:nonzero;fill:#e49e33;fill-opacity:1;" d="M 167.195312 183.515625 L 165.21875 183.515625 L 165.21875 185.351562 C 165.878906 185.386719 166.539062 185.421875 167.195312 185.449219 Z M 167.195312 183.515625 "/><path style=" stroke:none;fill-rule:nonzero;fill:#e49e33;fill-opacity:1;" d="M 187.589844 150.523438 L 188.203125 150.523438 L 188.167969 149.117188 L 188.171875 148.9375 L 187.589844 148.9375 Z M 187.589844 150.523438 "/><path style=" stroke:none;fill-rule:nonzero;fill:#e49e33;fill-opacity:1;" d="M 188.292969 154.539062 L 188.265625 153.367188 L 187.707031 153.367188 L 187.707031 154.953125 L 188.101562 154.953125 C 188.105469 154.816406 188.105469 154.679688 188.109375 154.542969 C 188.171875 154.539062 188.230469 154.539062 188.292969 154.539062 Z M 188.292969 154.539062 "/><path style=" stroke:none;fill-rule:nonzero;fill:#e49e33;fill-opacity:1;" d="M 213.457031 148.9375 L 213.800781 148.9375 L 213.800781 150.523438 L 213.457031 150.523438 Z M 213.457031 148.9375 "/><path style=" stroke:none;fill-rule:nonzero;fill:#e49e33;fill-opacity:1;" d="M 213.457031 153.367188 L 213.921875 153.367188 L 213.921875 154.953125 L 213.457031 154.953125 Z M 213.457031 153.367188 "/><path style=" stroke:none;fill-rule:nonzero;fill:#e49e33;fill-opacity:1;" d="M 187.929688 147.785156 C 188.015625 147.785156 188.101562 147.785156 188.183594 147.785156 L 188.542969 115.839844 C 188.28125 113.957031 188.0625 112.066406 187.871094 110.1875 C 187.890625 122.71875 187.910156 135.253906 187.929688 147.785156 Z M 187.929688 147.785156 "/><path style=" stroke:none;fill-rule:nonzero;fill:#e49e33;fill-opacity:1;" d="M 207.945312 185.648438 L 209.921875 185.648438 L 209.921875 185.816406 L 207.945312 185.816406 Z M 207.945312 185.648438 "/><path style=" stroke:none;fill-rule:nonzero;fill:#e49e33;fill-opacity:1;" d="M 207.945312 149.105469 L 209.921875 149.105469 L 209.921875 150.523438 L 207.945312 150.523438 Z M 207.945312 149.105469 "/><path style=" stroke:none;fill-rule:nonzero;fill:#e49e33;fill-opacity:1;" d="M 207.945312 153.367188 L 207.945312 154.675781 C 208.070312 154.753906 208.191406 154.847656 208.304688 154.953125 L 209.917969 154.953125 L 209.917969 153.367188 Z M 207.945312 153.367188 "/><path style=" stroke:none;fill-rule:nonzero;fill:#e49e33;fill-opacity:1;" d="M 187.945312 183.335938 L 187.945312 185.648438 L 189.007812 185.648438 L 188.953125 183.335938 Z M 187.945312 183.335938 "/><path style=" stroke:none;fill-rule:nonzero;fill:#e49e33;fill-opacity:1;" d="M 200.796875 185.648438 L 207.945312 185.648438 L 207.945312 185.445312 C 205.5625 185.542969 203.179688 185.597656 200.796875 185.648438 Z M 200.796875 185.648438 "/><path style=" stroke:none;fill-rule:nonzero;fill:#e49e33;fill-opacity:1;" d="M 209.917969 185.648438 L 213.457031 185.648438 L 213.457031 185.109375 C 212.277344 185.203125 211.097656 185.28125 209.917969 185.34375 Z M 209.917969 185.648438 "/><path style=" stroke:none;fill-rule:nonzero;fill:#e49e33;fill-opacity:1;" d="M 207.945312 185.445312 C 208.601562 185.417969 209.257812 185.378906 209.917969 185.34375 L 209.917969 183.335938 L 207.945312 183.335938 Z M 207.945312 185.445312 "/><path style=" stroke:none;fill-rule:nonzero;fill:#e49e33;fill-opacity:1;" d="M 185.996094 167.328125 L 185.996094 167.367188 C 186.371094 163.300781 186.503906 159.214844 186.386719 155.132812 L 186.222656 155.132812 Z M 185.996094 167.328125 "/><path style=" stroke:none;fill-rule:nonzero;fill:#e49e33;fill-opacity:1;" d="M 186.222656 155.132812 L 186.234375 154.539062 C 180.804688 154.425781 175.375 154.3125 169.945312 154.199219 C 168.886719 154.175781 167.898438 154.242188 167.195312 154.808594 L 167.195312 155.132812 Z M 186.222656 155.132812 "/><path style=" stroke:none;fill-rule:nonzero;fill:#e49e33;fill-opacity:1;" d="M 166.507812 155.742188 C 165.902344 157.171875 165.882812 158.871094 166.382812 160.332031 C 166.464844 160.570312 166.570312 160.816406 166.765625 160.980469 C 166.890625 161.085938 167.039062 161.136719 167.195312 161.175781 L 167.195312 155.132812 L 166.875 155.132812 C 166.738281 155.308594 166.609375 155.503906 166.507812 155.742188 Z M 166.507812 155.742188 "/><path style=" stroke:none;fill-rule:nonzero;fill:#e49e33;fill-opacity:1;" d="M 188.101562 154.953125 C 187.957031 159.492188 188.125 164.035156 188.617188 168.550781 L 188.300781 154.953125 Z M 188.101562 154.953125 "/><path style=" stroke:none;fill-rule:nonzero;fill:#e49e33;fill-opacity:1;" d="M 205.269531 154.199219 C 199.609375 154.3125 193.953125 154.425781 188.292969 154.539062 L 188.300781 154.953125 L 207.945312 154.953125 L 207.945312 154.675781 C 207.226562 154.234375 206.28125 154.179688 205.269531 154.199219 Z M 205.269531 154.199219 "/><path style=" stroke:none;fill-rule:nonzero;fill:#e49e33;fill-opacity:1;" d="M 208.992188 160.332031 C 209.511719 158.871094 209.488281 157.171875 208.855469 155.742188 C 208.730469 155.457031 208.574219 155.21875 208.390625 155.027344 C 208.363281 155 208.332031 154.980469 208.304688 154.953125 L 207.945312 154.953125 L 207.945312 161.214844 C 208.183594 161.1875 208.410156 161.125 208.589844 160.980469 C 208.796875 160.816406 208.902344 160.570312 208.992188 160.332031 Z M 208.992188 160.332031 "/><path style=" stroke:none;fill-rule:nonzero;fill:#e49e33;fill-opacity:1;" d="M 185.710938 237.828125 C 187.003906 235.785156 186.710938 233.027344 185.511719 230.929688 C 184.320312 228.828125 182.367188 227.273438 180.351562 225.929688 C 174.683594 222.15625 168.160156 219.675781 161.414062 218.734375 C 160.582031 218.617188 159.714844 218.515625 158.992188 218.082031 C 158.269531 217.652344 157.730469 216.785156 157.960938 215.972656 C 158.375 214.523438 160.449219 214.632812 161.796875 213.960938 C 163.480469 213.128906 163.992188 210.726562 163.070312 209.089844 C 162.148438 207.449219 160.144531 206.621094 158.269531 206.746094 C 154.027344 207.03125 149.09375 211.699219 150.515625 216.214844 C 151.347656 218.863281 154.144531 220.347656 156.796875 221.179688 C 162.421875 222.941406 168.578125 223.042969 173.839844 225.703125 C 178.949219 228.285156 182.636719 232.996094 185.710938 237.828125 Z M 185.710938 237.828125 "/><path style=" stroke:none;fill-rule:nonzero;fill:#e49e33;fill-opacity:1;" d="M 133.28125 207.726562 C 133.378906 207.746094 133.476562 207.765625 133.574219 207.800781 C 134.328125 208.03125 134.910156 208.617188 135.578125 209.046875 C 137.199219 210.085938 139.425781 210.089844 141.054688 209.058594 C 141.625 208.695312 142.128906 208.207031 142.433594 207.601562 C 143.339844 205.773438 142.125 203.554688 140.542969 202.265625 C 134.527344 197.375 124.839844 201.269531 124.363281 209.113281 C 124.210938 211.683594 125.117188 214.304688 126.824219 216.234375 C 129.84375 219.644531 134.714844 220.542969 139.195312 221.355469 C 148.296875 223.019531 157.320312 225.175781 166.078125 228.164062 C 173.261719 230.613281 180.652344 233.9375 184.894531 240.230469 C 182.75 234.386719 177.746094 229.941406 172.160156 227.191406 C 166.574219 224.441406 160.386719 223.195312 154.257812 222.082031 C 148.132812 220.96875 141.929688 219.949219 136.164062 217.597656 C 133.570312 216.542969 130.832031 214.929688 130.121094 212.21875 C 129.828125 211.117188 129.9375 209.875 130.589844 208.941406 C 131.183594 208.089844 132.269531 207.566406 133.28125 207.726562 Z M 133.28125 207.726562 "/><path style=" stroke:none;fill-rule:nonzero;fill:#e49e33;fill-opacity:1;" d="M 111.890625 187.425781 C 112.734375 188.449219 113.121094 189.773438 112.613281 191.164062 C 112.230469 192.199219 111.40625 193.035156 111.054688 194.078125 C 110.28125 196.375 112.238281 198.976562 114.625 199.40625 C 117.007812 199.839844 119.453125 198.527344 120.984375 196.648438 C 123.71875 193.292969 123.886719 188.207031 121.734375 184.449219 C 119.585938 180.6875 115.394531 178.304688 111.078125 177.917969 C 101.039062 177.015625 92.59375 185.445312 92.078125 195.226562 C 91.792969 200.605469 93.863281 205.949219 97.210938 210.167969 C 100.558594 214.386719 105.105469 217.535156 109.976562 219.828125 C 118.195312 223.695312 127.3125 225.210938 136.332031 226.308594 C 145.351562 227.40625 154.472656 228.136719 163.21875 230.59375 C 171.96875 233.046875 180.46875 237.410156 186.140625 244.515625 C 182.933594 237.890625 176.707031 233.109375 169.949219 230.195312 C 163.195312 227.28125 155.855469 226.027344 148.59375 224.839844 C 138.082031 223.117188 127.46875 221.453125 117.539062 217.597656 C 111.53125 215.265625 105.609375 211.949219 101.96875 206.632812 C 98.324219 201.316406 97.566406 193.621094 101.597656 188.589844 C 103.171875 186.625 105.71875 185.175781 108.292969 185.46875 C 109.648438 185.621094 111.015625 186.363281 111.890625 187.425781 Z M 111.890625 187.425781 "/><path style=" stroke:none;fill-rule:nonzero;fill:#e49e33;fill-opacity:1;" d="M 186.140625 247.351562 C 183.199219 244.699219 180.4375 241.75 176.960938 239.761719 C 174.070312 238.109375 170.777344 237.347656 167.492188 236.9375 C 164.71875 236.589844 160.539062 235.628906 158.351562 237.914062 C 157.5 238.808594 157.144531 240.050781 156.429688 241.054688 C 155.125 242.890625 152.515625 243.730469 150.382812 242.957031 C 148.253906 242.175781 146.824219 239.8125 147.214844 237.601562 C 147.617188 235.296875 149.652344 233.660156 151.710938 232.75 C 154.511719 231.519531 157.679688 231.246094 160.722656 231.585938 C 163.769531 231.929688 166.714844 232.863281 169.570312 233.957031 C 174.042969 235.675781 179.894531 238.074219 182.683594 242.152344 C 183.949219 244 184.996094 246.03125 186.140625 247.953125 "/><g clip-rule="nonzero" clip-path="url(#099f01973d)"><path style=" stroke:none;fill-rule:nonzero;fill:#e49e33;fill-opacity:1;" d="M 185.375 248.574219 C 181.933594 244.0625 177.035156 240.683594 171.59375 239.078125 C 168.546875 238.175781 162.253906 237.972656 162.773438 242.847656 C 162.898438 244.007812 163.632812 245.082031 164.660156 245.625 C 165.925781 246.285156 167.460938 246.125 168.835938 245.757812 C 170.21875 245.390625 171.554688 244.820312 172.972656 244.699219 C 175.046875 244.519531 177.066406 245.292969 179 246.058594 C 181.121094 246.894531 183.25 247.734375 185.375 248.574219 Z M 185.375 248.574219 "/></g><path style=" stroke:none;fill-rule:nonzero;fill:#e49e33;fill-opacity:1;" d="M 189.703125 235.421875 C 188.410156 233.378906 188.703125 230.625 189.902344 228.519531 C 191.09375 226.421875 193.050781 224.863281 195.0625 223.527344 C 200.730469 219.753906 207.253906 217.273438 214 216.328125 C 214.832031 216.210938 215.699219 216.109375 216.421875 215.679688 C 217.144531 215.246094 217.683594 214.375 217.453125 213.566406 C 217.039062 212.117188 214.96875 212.226562 213.617188 211.558594 C 211.933594 210.71875 211.421875 208.320312 212.34375 206.679688 C 213.265625 205.042969 215.269531 204.214844 217.144531 204.34375 C 221.386719 204.625 226.320312 209.289062 224.898438 213.808594 C 224.066406 216.457031 221.269531 217.941406 218.617188 218.769531 C 212.992188 220.53125 206.835938 220.640625 201.574219 223.296875 C 196.460938 225.878906 192.777344 230.589844 189.703125 235.421875 Z M 189.703125 235.421875 "/><path style=" stroke:none;fill-rule:nonzero;fill:#e49e33;fill-opacity:1;" d="M 242.132812 205.324219 C 242.035156 205.339844 241.9375 205.363281 241.839844 205.394531 C 241.085938 205.625 240.503906 206.210938 239.835938 206.640625 C 238.210938 207.679688 235.988281 207.6875 234.359375 206.652344 C 233.789062 206.289062 233.285156 205.804688 232.980469 205.195312 C 232.074219 203.367188 233.289062 201.144531 234.871094 199.855469 C 240.886719 194.96875 250.578125 198.863281 251.046875 206.707031 C 251.203125 209.277344 250.296875 211.898438 248.589844 213.828125 C 245.570312 217.242188 240.699219 218.132812 236.21875 218.953125 C 227.117188 220.613281 218.09375 222.765625 209.335938 225.753906 C 202.152344 228.207031 194.761719 231.535156 190.515625 237.824219 C 192.664062 231.980469 197.664062 227.53125 203.253906 224.785156 C 208.839844 222.035156 215.027344 220.789062 221.15625 219.675781 C 227.28125 218.566406 233.484375 217.542969 239.25 215.195312 C 241.84375 214.136719 244.582031 212.519531 245.296875 209.8125 C 245.585938 208.710938 245.476562 207.46875 244.824219 206.535156 C 244.230469 205.683594 243.144531 205.15625 242.132812 205.324219 Z M 242.132812 205.324219 "/><g clip-rule="nonzero" clip-path="url(#c55f43fe30)"><path style=" stroke:none;fill-rule:nonzero;fill:#e49e33;fill-opacity:1;" d="M 263.523438 185.019531 C 262.679688 186.042969 262.289062 187.367188 262.800781 188.757812 C 263.183594 189.792969 264.003906 190.628906 264.359375 191.671875 C 265.132812 193.972656 263.175781 196.570312 260.789062 197.003906 C 258.40625 197.433594 255.960938 196.125 254.429688 194.242188 C 251.691406 190.886719 251.527344 185.804688 253.679688 182.042969 C 255.828125 178.28125 260.019531 175.898438 264.332031 175.511719 C 274.375 174.609375 282.820312 183.039062 283.335938 192.820312 C 283.621094 198.195312 281.550781 203.542969 278.203125 207.761719 C 274.855469 211.980469 270.308594 215.128906 265.4375 217.421875 C 257.21875 221.289062 248.105469 222.804688 239.082031 223.902344 C 230.0625 224.996094 220.941406 225.730469 212.195312 228.183594 C 203.445312 230.640625 194.941406 235.007812 189.273438 242.109375 C 192.480469 235.480469 198.707031 230.703125 205.460938 227.789062 C 212.21875 224.875 219.558594 223.621094 226.820312 222.433594 C 237.332031 220.710938 247.945312 219.046875 257.875 215.191406 C 263.882812 212.859375 269.804688 209.546875 273.445312 204.226562 C 277.089844 198.90625 277.847656 191.210938 273.816406 186.183594 C 272.242188 184.222656 269.695312 182.773438 267.121094 183.0625 C 265.765625 183.214844 264.398438 183.953125 263.523438 185.019531 Z M 263.523438 185.019531 "/></g><path style=" stroke:none;fill-rule:nonzero;fill:#e49e33;fill-opacity:1;" d="M 189.273438 244.941406 C 192.214844 242.289062 194.976562 239.34375 198.453125 237.355469 C 201.339844 235.699219 204.636719 234.945312 207.921875 234.53125 C 210.695312 234.183594 214.875 233.226562 217.066406 235.511719 C 217.914062 236.402344 218.273438 237.644531 218.984375 238.648438 C 220.289062 240.484375 222.894531 241.328125 225.027344 240.546875 C 227.160156 239.769531 228.589844 237.402344 228.203125 235.195312 C 227.796875 232.890625 225.761719 231.25 223.699219 230.34375 C 220.902344 229.113281 217.738281 228.839844 214.691406 229.183594 C 211.644531 229.527344 208.699219 230.457031 205.84375 231.550781 C 201.367188 233.269531 195.523438 235.664062 192.730469 239.746094 C 191.464844 241.59375 190.417969 243.625 189.273438 245.546875 "/><path style=" stroke:none;fill-rule:nonzero;fill:#e49e33;fill-opacity:1;" d="M 190.042969 246.164062 C 193.480469 241.652344 198.378906 238.277344 203.816406 236.671875 C 206.867188 235.773438 213.160156 235.566406 212.640625 240.441406 C 212.515625 241.597656 211.785156 242.675781 210.75 243.21875 C 209.488281 243.875 207.953125 243.722656 206.574219 243.355469 C 205.195312 242.980469 203.859375 242.414062 202.441406 242.292969 C 200.367188 242.113281 198.347656 242.886719 196.414062 243.652344 C 194.289062 244.488281 192.164062 245.328125 190.042969 246.164062 Z M 190.042969 246.164062 "/></g></svg>