<svg xmlns="http://www.w3.org/2000/svg" xmlns:xlink="http://www.w3.org/1999/xlink" width="500" zoomAndPan="magnify" viewBox="0 0 375 374.999991" height="500" preserveAspectRatio="xMidYMid meet" version="1.2"><defs><clipPath id="f96c3e2b96"><path d="M 75 24.082031 L 300 24.082031 L 300 281 L 75 281 Z M 75 24.082031 "/></clipPath><clipPath id="3e2a5274f0"><path d="M 55.371094 253 L 186 253 L 186 346 L 55.371094 346 Z M 55.371094 253 "/></clipPath><clipPath id="f307c20907"><path d="M 131 327 L 186 327 L 186 350.917969 L 131 350.917969 Z M 131 327 "/></clipPath><clipPath id="7fa0deb9fb"><path d="M 153 337 L 185 337 L 185 350.917969 L 153 350.917969 Z M 153 337 "/></clipPath><clipPath id="eb7e913cb2"><path d="M 189 250 L 319.335938 250 L 319.335938 343 L 189 343 Z M 189 250 "/></clipPath></defs><g id="27725a7038"><path style=" stroke:none;fill-rule:nonzero;fill:#e49e33;fill-opacity:1;" d="M 187.410156 278.492188 C 187.066406 279.0625 186.621094 279.5625 186.046875 279.972656 C 185.851562 280.113281 185.636719 280.222656 185.425781 280.328125 L 185.425781 308.960938 L 187.523438 319.640625 L 189.753906 319.640625 L 190.683594 312.300781 L 189.960938 280.574219 C 189.546875 280.417969 189.144531 280.234375 188.773438 279.972656 C 188.199219 279.5625 187.757812 279.0625 187.410156 278.492188 Z M 187.410156 278.492188 "/><path style=" stroke:none;fill-rule:nonzero;fill:#e49e33;fill-opacity:1;" d="M 151.84375 222.027344 L 156.730469 222.027344 L 156.730469 261.234375 L 151.84375 261.234375 Z M 151.84375 222.027344 "/><path style=" stroke:none;fill-rule:nonzero;fill:#e49e33;fill-opacity:1;" d="M 215.742188 230.425781 C 215.449219 230.460938 215.144531 230.460938 214.855469 230.464844 C 213.363281 230.480469 211.753906 230.878906 210.855469 231.992188 C 209.671875 233.453125 210.125 235.496094 210.277344 237.320312 C 210.453125 239.433594 210.140625 241.578125 209.367188 243.570312 C 206.96875 242.152344 206.117188 239.308594 205.664062 236.695312 C 205.207031 234.082031 204.878906 231.269531 203.027344 229.265625 C 202.242188 228.414062 200.683594 227.816406 199.945312 228.699219 C 199.738281 228.949219 199.652344 229.265625 199.589844 229.574219 C 198.769531 233.65625 201.207031 237.796875 200.707031 241.925781 C 200.589844 242.898438 200.113281 244.03125 199.074219 244.1875 C 197.890625 244.367188 197.039062 243.136719 196.738281 242.050781 C 195.566406 237.867188 197.3125 233.125 195.242188 229.257812 C 194.582031 228.039062 193.148438 226.882812 191.796875 227.402344 C 190.855469 227.761719 190.421875 228.773438 190.226562 229.707031 C 189.417969 233.445312 190.679688 237.519531 189.085938 241.03125 C 189.066406 240.875 189.058594 240.71875 189.046875 240.5625 L 189.507812 260.984375 L 215.742188 260.984375 Z M 215.742188 230.425781 "/><path style=" stroke:none;fill-rule:nonzero;fill:#e49e33;fill-opacity:1;" d="M 151.84375 215.910156 L 156.730469 215.910156 L 156.730469 219.835938 L 151.84375 219.835938 Z M 151.84375 215.910156 "/><path style=" stroke:none;fill-rule:nonzero;fill:#e49e33;fill-opacity:1;" d="M 218.46875 221.777344 L 223.355469 221.777344 L 223.355469 260.984375 L 218.46875 260.984375 Z M 218.46875 221.777344 "/><path style=" stroke:none;fill-rule:nonzero;fill:#e49e33;fill-opacity:1;" d="M 218.46875 215.660156 L 223.355469 215.660156 L 223.355469 219.585938 L 218.46875 219.585938 Z M 218.46875 215.660156 "/><path style=" stroke:none;fill-rule:nonzero;fill:#e49e33;fill-opacity:1;" d="M 184.152344 229.707031 C 183.957031 228.773438 183.546875 227.761719 182.640625 227.402344 C 181.347656 226.882812 179.972656 228.039062 179.351562 229.257812 C 177.359375 233.125 179.039062 237.867188 177.914062 242.050781 C 177.625 243.136719 176.8125 244.367188 175.675781 244.1875 C 174.683594 244.03125 174.230469 242.898438 174.117188 241.925781 C 173.632812 237.796875 175.96875 233.65625 175.183594 229.574219 C 175.125 229.265625 175.042969 228.949219 174.84375 228.699219 C 174.132812 227.816406 172.644531 228.414062 171.894531 229.265625 C 170.121094 231.269531 169.804688 234.082031 169.367188 236.695312 C 168.933594 239.308594 168.113281 242.152344 165.820312 243.570312 C 165.082031 241.578125 164.785156 239.433594 164.953125 237.320312 C 165.101562 235.496094 165.53125 233.453125 164.398438 231.992188 C 163.535156 230.878906 162 230.480469 160.566406 230.464844 C 160.203125 230.457031 159.808594 230.457031 159.457031 230.375 L 159.457031 261.234375 L 185.425781 261.234375 L 185.425781 238.925781 C 185.363281 239.628906 185.3125 240.332031 185.242188 241.03125 C 183.714844 237.519531 184.921875 233.445312 184.152344 229.707031 Z M 184.152344 229.707031 "/><g clip-rule="nonzero" clip-path="url(#f96c3e2b96)"><path style=" stroke:none;fill-rule:nonzero;fill:#e49e33;fill-opacity:1;" d="M 282.449219 141.136719 C 270.902344 126.917969 255.09375 107.429688 239.683594 88.433594 C 239.679688 88.511719 239.675781 88.589844 239.65625 88.671875 C 239.519531 89.371094 239.105469 89.976562 238.695312 90.554688 C 236.453125 93.75 234.203125 96.941406 231.957031 100.136719 C 231.820312 97.605469 231.683594 95.074219 231.550781 92.539062 C 228.007812 95.328125 223.40625 96.664062 218.960938 96.199219 C 221.996094 93.320312 225.539062 91 229.367188 89.390625 C 226.542969 88.683594 223.554688 88.648438 220.714844 89.289062 C 220.011719 87.703125 221.175781 85.785156 222.722656 85.046875 C 224.269531 84.308594 226.046875 84.40625 227.75 84.417969 C 229.710938 84.429688 231.675781 84.3125 233.617188 84.558594 C 234.175781 84.632812 235.011719 84.789062 235.875 85.050781 C 236.394531 85.207031 236.921875 85.402344 237.414062 85.632812 C 211.550781 53.753906 187.476562 24.085938 187.410156 24.164062 C 187.347656 24.085938 163.171875 53.875 137.253906 85.824219 C 137.847656 85.503906 138.515625 85.246094 139.164062 85.050781 C 140.035156 84.789062 140.863281 84.632812 141.421875 84.558594 C 143.363281 84.3125 145.332031 84.429688 147.289062 84.417969 C 148.992188 84.40625 150.777344 84.308594 152.316406 85.046875 C 153.863281 85.785156 155.027344 87.703125 154.328125 89.289062 C 151.484375 88.648438 148.5 88.683594 145.671875 89.390625 C 149.5 91 153.042969 93.320312 156.078125 96.199219 C 151.636719 96.664062 147.035156 95.328125 143.488281 92.539062 C 143.355469 95.074219 143.21875 97.605469 143.082031 100.136719 C 140.835938 96.941406 138.589844 93.75 136.34375 90.554688 C 135.9375 89.976562 135.519531 89.371094 135.382812 88.671875 C 135.351562 88.496094 135.34375 88.328125 135.351562 88.164062 C 119.875 107.246094 103.972656 126.851562 92.367188 141.136719 C 83.0625 152.582031 73.214844 166.027344 76 180.324219 C 79.066406 196.089844 96.359375 206.003906 101.253906 221.300781 C 101.300781 221.4375 101.34375 221.578125 101.386719 221.71875 C 103.425781 228.4375 102.851562 235.589844 103.132812 242.585938 C 103.554688 252.953125 106.695312 261.648438 116.53125 266.558594 C 126.8125 271.691406 138.398438 273.691406 149.683594 275.625 C 159.40625 277.289062 169.125 278.957031 178.84375 280.617188 C 181.046875 280.996094 183.5 281.308594 185.425781 280.328125 L 185.425781 266.335938 C 183.195312 266.84375 180.878906 266.851562 178.585938 266.828125 C 162.875 266.675781 147.175781 265.398438 131.652344 263.011719 C 129.941406 262.75 128.113281 262.417969 126.871094 261.242188 C 125.726562 260.152344 125.296875 258.539062 125.085938 256.992188 C 124.089844 249.773438 127.308594 236.636719 137.0625 237.507812 C 139.394531 237.714844 141.664062 239.050781 142.667969 241.117188 C 143.675781 243.179688 143.195312 245.917969 141.367188 247.339844 C 139.4375 248.835938 136.574219 248.710938 134.265625 249.433594 C 133.324219 249.730469 132.472656 250.167969 131.820312 250.917969 C 130.421875 252.519531 130.601562 255.03125 131.765625 256.800781 C 132.925781 258.570312 134.863281 259.710938 136.84375 260.535156 C 140.894531 262.230469 145.3125 262.859375 149.699219 263.273438 C 150.410156 263.34375 151.128906 263.386719 151.84375 263.445312 L 151.84375 261.234375 L 149.113281 261.234375 L 149.113281 213.714844 L 185.890625 213.714844 L 185.921875 212.128906 C 177.609375 212.144531 169.296875 212.160156 160.984375 212.175781 C 162.4375 212.171875 165.425781 209.148438 166.527344 208.242188 C 168.363281 206.738281 170.089844 205.097656 171.6875 203.34375 C 174.964844 199.753906 177.71875 195.691406 179.820312 191.3125 C 184.003906 182.609375 185.722656 173.042969 186.820312 163.511719 L 187.523438 125.5625 L 187.523438 114.714844 L 188.425781 107.789062 L 189.402344 127.664062 L 188.945312 167.75 C 190.078125 175.773438 191.851562 183.726562 195.378906 191.0625 C 197.484375 195.441406 200.238281 199.503906 203.507812 203.09375 C 205.113281 204.847656 206.839844 206.488281 208.671875 207.992188 C 209.773438 208.898438 212.765625 211.921875 214.214844 211.925781 C 205.628906 211.910156 197.039062 211.894531 188.449219 211.878906 L 188.433594 213.46875 L 226.089844 213.46875 L 226.089844 260.984375 L 223.359375 260.984375 L 223.359375 263.433594 C 224.019531 263.378906 224.679688 263.335938 225.339844 263.273438 C 229.726562 262.859375 234.148438 262.230469 238.195312 260.535156 C 240.175781 259.710938 242.117188 258.570312 243.277344 256.800781 C 244.441406 255.03125 244.617188 252.519531 243.226562 250.917969 C 242.566406 250.167969 241.71875 249.730469 240.773438 249.433594 C 238.464844 248.710938 235.601562 248.835938 233.675781 247.339844 C 231.84375 245.917969 231.371094 243.179688 232.375 241.117188 C 233.378906 239.050781 235.644531 237.714844 237.980469 237.507812 C 247.730469 236.636719 250.949219 249.773438 249.953125 256.992188 C 249.742188 258.539062 249.3125 260.152344 248.167969 261.242188 C 246.925781 262.417969 245.097656 262.75 243.386719 263.011719 C 227.863281 265.398438 212.164062 266.675781 196.453125 266.828125 C 194.167969 266.851562 191.855469 266.84375 189.636719 266.339844 L 189.960938 280.574219 C 191.789062 281.238281 193.984375 280.960938 195.976562 280.617188 C 205.695312 278.957031 215.414062 277.289062 225.132812 275.625 C 236.421875 273.691406 248.011719 271.691406 258.289062 266.558594 C 268.125 261.648438 271.265625 252.953125 271.683594 242.585938 C 271.96875 235.589844 271.394531 228.4375 273.433594 221.71875 C 273.472656 221.578125 273.519531 221.4375 273.5625 221.300781 C 278.457031 206.003906 295.753906 196.089844 298.820312 180.324219 C 301.605469 166.027344 291.753906 152.582031 282.449219 141.136719 Z M 177.878906 268.164062 C 178.988281 268.183594 180.253906 268.285156 180.921875 269.191406 C 181.464844 269.929688 181.402344 271.003906 180.976562 271.816406 C 179.851562 273.957031 177.03125 274.273438 174.65625 274.320312 C 170.546875 274.398438 165.847656 275.132812 161.820312 274.414062 C 160.210938 274.125 158.476562 273.449219 157.089844 272.566406 C 156.371094 272.109375 154.464844 268.992188 153.71875 269.058594 C 161.746094 268.335938 169.816406 268.039062 177.878906 268.164062 Z M 217.949219 272.566406 C 216.566406 273.449219 214.828125 274.125 213.21875 274.414062 C 209.191406 275.132812 204.492188 274.398438 200.382812 274.320312 C 198.007812 274.273438 195.1875 273.957031 194.066406 271.816406 C 193.640625 271.003906 193.574219 269.929688 194.117188 269.191406 C 194.785156 268.285156 196.054688 268.183594 197.164062 268.164062 C 205.226562 268.039062 213.292969 268.335938 221.320312 269.058594 C 220.574219 268.992188 218.667969 272.109375 217.949219 272.566406 Z M 228.570312 101.121094 C 232.019531 103.464844 234.464844 107.117188 237.273438 110.289062 C 241.839844 115.460938 247.191406 119.902344 252.984375 123.402344 C 256.378906 125.453125 262.15625 128.832031 259.984375 133.761719 C 257.160156 140.160156 246.394531 131.765625 243.554688 129.453125 C 240.554688 127.011719 237.605469 124.152344 236.425781 120.195312 L 236.699219 120.140625 C 236.050781 118.660156 232.042969 120.035156 230.917969 120.074219 C 227.640625 120.183594 222.007812 119.628906 221.390625 115.40625 C 220.96875 112.554688 223.605469 108.867188 226.65625 109.703125 C 222.050781 107.964844 216.410156 106.019531 211.515625 107.609375 C 207.367188 108.957031 205.195312 113.683594 205.859375 117.917969 C 206.269531 120.503906 207.367188 122.902344 208.453125 125.257812 C 210.1875 129.042969 212.164062 133.085938 215.710938 134.929688 C 213.238281 133.480469 210.464844 132.75 207.804688 131.753906 C 205.140625 130.753906 202.472656 129.40625 200.691406 127.070312 C 199.101562 124.992188 198.359375 122.285156 198.207031 119.605469 C 197.890625 114.066406 200.042969 108.476562 203.734375 104.574219 C 207.425781 100.671875 212.566406 98.453125 217.753906 98.230469 C 221.523438 98.070312 225.390625 98.953125 228.570312 101.121094 Z M 237.808594 133.070312 L 236.957031 132.925781 C 231.730469 133.796875 226.070312 132.425781 221.066406 130.886719 C 215.558594 129.191406 211.160156 124.210938 209.679688 118.578125 C 209.105469 116.386719 209.011719 113.828125 210.429688 112.085938 C 210.953125 111.445312 211.675781 110.953125 212.480469 110.816406 C 213.507812 110.640625 214.582031 111.070312 215.347656 111.796875 C 216.628906 113.011719 217.078125 114.894531 217.234375 116.675781 C 217.390625 118.460938 217.328125 120.292969 217.863281 121.996094 C 218.605469 124.347656 220.429688 126.214844 222.5 127.472656 C 224.785156 128.859375 227.398438 129.53125 229.824219 130.550781 C 232.382812 131.628906 235.105469 132.472656 237.808594 133.070312 Z M 203.058594 88.21875 C 201.863281 87.210938 200.304688 88.257812 198.976562 88.207031 C 197.070312 88.136719 195.722656 86.542969 195.515625 84.675781 C 195.132812 81.214844 197.691406 78.59375 200.90625 78.078125 C 204.167969 77.554688 207.332031 79.414062 208.984375 82.253906 C 211.421875 86.441406 209.953125 91.695312 207.523438 95.511719 C 206 97.90625 203.980469 99.902344 201.742188 101.597656 C 200.253906 102.726562 198.667969 103.769531 197.324219 105.066406 C 196.976562 105.574219 196.632812 106.078125 196.308594 106.574219 L 195.640625 107.058594 C 196.125 106.3125 196.699219 105.664062 197.324219 105.066406 C 200.253906 100.746094 203.65625 96.023438 203.820312 90.695312 C 203.847656 89.796875 203.734375 88.789062 203.058594 88.21875 Z M 219.929688 81.75 C 219.40625 84.320312 217.996094 86.5625 217.417969 89.070312 C 216.9375 91.167969 217.761719 93.941406 215.882812 95.511719 L 215.4375 94.292969 C 214.484375 87.691406 218.136719 80.203125 213.53125 74.402344 C 211.433594 71.765625 208.617188 72.566406 205.894531 73.769531 C 203.546875 74.804688 201.03125 75.777344 198.421875 75.523438 C 192.1875 74.917969 194.714844 67.710938 198.066406 65.230469 C 203.652344 61.089844 210.953125 62.441406 215.769531 67.210938 C 219.691406 71.089844 221.023438 76.378906 219.929688 81.75 Z M 191.960938 32.765625 C 192.324219 32.773438 195.875 37.382812 195.785156 37.507812 C 195.785156 37.507812 194.628906 39.085938 194.960938 39.484375 C 195.289062 39.875 205.015625 50.386719 205.152344 50.542969 C 206.972656 52.511719 207.042969 55.65625 205.878906 57.945312 C 205.253906 59.1875 204.351562 60.273438 203.464844 61.347656 C 202.558594 62.4375 201.289062 63.066406 200.003906 63.609375 C 198.648438 64.183594 197.679688 64.578125 196.554688 64.644531 C 195.863281 64.6875 195.113281 64.609375 194.183594 64.367188 C 192.304688 63 191.472656 61.628906 192.515625 59.210938 C 192.984375 58.128906 194.574219 55.730469 195.785156 55.328125 C 196.863281 54.96875 198.304688 54.917969 199 53.90625 C 199.066406 53.804688 199.128906 53.6875 199.117188 53.566406 C 199.101562 53.441406 199.007812 53.34375 198.921875 53.253906 C 198.25 52.546875 197.566406 51.863281 196.84375 51.203125 L 191.605469 45.320312 L 190.761719 33.292969 C 190.761719 33.292969 191.9375 32.777344 191.960938 32.765625 Z M 169.886719 50.542969 C 170.03125 50.386719 179.75 39.875 180.082031 39.484375 C 180.410156 39.085938 179.253906 37.507812 179.253906 37.507812 C 179.164062 37.382812 182.71875 32.773438 183.078125 32.765625 C 183.105469 32.777344 184.28125 33.292969 184.28125 33.292969 L 183.433594 45.320312 L 178.195312 51.203125 C 177.472656 51.863281 176.792969 52.546875 176.117188 53.253906 C 176.03125 53.34375 175.941406 53.441406 175.921875 53.566406 C 175.910156 53.6875 175.972656 53.804688 176.046875 53.90625 C 176.738281 54.917969 178.175781 54.96875 179.253906 55.328125 C 180.46875 55.730469 182.054688 58.128906 182.523438 59.210938 C 183.570312 61.628906 182.742188 63 180.859375 64.367188 C 179.925781 64.609375 179.175781 64.6875 178.488281 64.644531 C 177.367188 64.578125 176.390625 64.183594 175.039062 63.609375 C 173.757812 63.066406 172.480469 62.4375 171.578125 61.347656 C 170.6875 60.273438 169.789062 59.1875 169.160156 57.945312 C 168.003906 55.65625 168.066406 52.511719 169.886719 50.542969 Z M 155.109375 81.75 C 154.015625 76.378906 155.347656 71.089844 159.269531 67.210938 C 164.085938 62.441406 171.390625 61.089844 176.976562 65.230469 C 180.324219 67.710938 182.855469 74.917969 176.621094 75.523438 C 174.007812 75.777344 171.492188 74.804688 169.144531 73.769531 C 166.421875 72.566406 163.605469 71.765625 161.507812 74.402344 C 156.902344 80.203125 160.554688 87.691406 159.601562 94.292969 L 159.15625 95.511719 C 157.28125 93.941406 158.101562 91.167969 157.621094 89.070312 C 157.046875 86.5625 155.636719 84.320312 155.109375 81.75 Z M 171.222656 90.695312 C 171.382812 96.023438 174.785156 100.746094 177.722656 105.066406 C 178.339844 105.664062 178.914062 106.3125 179.398438 107.058594 L 178.730469 106.574219 C 178.40625 106.078125 178.0625 105.574219 177.722656 105.066406 C 176.375 103.769531 174.789062 102.726562 173.296875 101.597656 C 171.0625 99.902344 169.042969 97.90625 167.515625 95.511719 C 165.085938 91.695312 163.617188 86.441406 166.054688 82.253906 C 167.710938 79.414062 170.871094 77.554688 174.132812 78.078125 C 177.347656 78.59375 179.910156 81.214844 179.523438 84.675781 C 179.316406 86.542969 177.96875 88.136719 176.0625 88.207031 C 174.734375 88.257812 173.179688 87.210938 171.980469 88.21875 C 171.304688 88.789062 171.195312 89.796875 171.222656 90.695312 Z M 122.058594 123.402344 C 127.847656 119.902344 133.199219 115.460938 137.769531 110.289062 C 140.574219 107.117188 143.019531 103.464844 146.46875 101.121094 C 149.652344 98.953125 153.515625 98.070312 157.285156 98.230469 C 162.472656 98.453125 167.613281 100.671875 171.304688 104.574219 C 175 108.476562 177.148438 114.066406 176.832031 119.605469 C 176.679688 122.285156 175.9375 124.992188 174.351562 127.070312 C 172.566406 129.40625 169.898438 130.753906 167.234375 131.753906 C 164.578125 132.75 161.800781 133.480469 159.332031 134.929688 C 162.875 133.085938 164.851562 129.042969 166.589844 125.257812 C 167.671875 122.902344 168.769531 120.503906 169.179688 117.917969 C 169.84375 113.683594 167.671875 108.957031 163.527344 107.609375 C 158.628906 106.019531 152.988281 107.964844 148.382812 109.703125 C 151.433594 108.867188 154.070312 112.554688 153.65625 115.40625 C 153.039062 119.628906 147.402344 120.183594 144.121094 120.074219 C 143 120.035156 138.988281 118.660156 138.339844 120.140625 L 138.613281 120.195312 C 137.4375 124.152344 134.492188 127.011719 131.484375 129.453125 C 128.648438 131.765625 117.878906 140.160156 115.054688 133.761719 C 112.882812 128.832031 118.664062 125.453125 122.058594 123.402344 Z M 153.976562 130.886719 C 148.972656 132.425781 143.308594 133.796875 138.082031 132.925781 L 137.230469 133.070312 C 139.933594 132.472656 142.65625 131.628906 145.214844 130.550781 C 147.644531 129.53125 150.253906 128.859375 152.539062 127.472656 C 154.613281 126.214844 156.433594 124.347656 157.175781 121.996094 C 157.710938 120.292969 157.652344 118.460938 157.808594 116.675781 C 157.960938 114.894531 158.410156 113.011719 159.691406 111.796875 C 160.457031 111.070312 161.53125 110.640625 162.558594 110.816406 C 163.367188 110.953125 164.089844 111.445312 164.609375 112.085938 C 166.027344 113.828125 165.9375 116.386719 165.363281 118.578125 C 163.878906 124.210938 159.484375 129.191406 153.976562 130.886719 Z M 89.988281 182.152344 C 89.824219 183.53125 89.71875 184.917969 89.691406 186.308594 L 87.984375 185.976562 C 88.652344 184.703125 89.320312 183.425781 89.988281 182.152344 C 90.847656 174.902344 93.554688 167.878906 97.816406 162.015625 C 106.226562 150.453125 117.988281 140.691406 131.554688 136.347656 C 143.109375 132.644531 162.921875 132.265625 170.175781 144.5625 C 172.585938 148.652344 173.949219 156.949219 168.753906 159.519531 C 159.386719 164.152344 157.34375 148.71875 151.660156 145.582031 C 147.617188 143.347656 142.667969 143.792969 138.34375 144.761719 C 128.855469 146.882812 120.195312 152.070312 111.863281 156.972656 C 102.441406 162.515625 97.074219 168.636719 91.941406 178.433594 C 91.289062 179.671875 90.636719 180.914062 89.988281 182.152344 Z M 93.917969 188.703125 C 95.019531 187.378906 96.121094 186.027344 97.238281 184.679688 C 101.324219 176.828125 106.035156 169.25 112.960938 163.746094 C 119.691406 158.394531 128.222656 154.132812 136.898438 152.605469 C 142.019531 151.707031 148.070312 151.429688 153.109375 152.910156 C 158.253906 154.425781 164.34375 160.601562 157.507812 165.152344 C 155.078125 166.769531 151.964844 166.851562 149.097656 166.421875 C 138.386719 164.820312 127.28125 163.824219 116.96875 167.949219 C 108.808594 171.214844 102.824219 177.933594 97.238281 184.679688 C 96.011719 187.035156 94.839844 189.417969 93.683594 191.773438 Z M 97.015625 190.355469 C 96.285156 191.027344 95.550781 191.699219 94.820312 192.367188 L 95.527344 190.847656 C 96.027344 190.699219 96.519531 190.519531 97.015625 190.355469 C 98.992188 188.546875 100.964844 186.734375 102.941406 184.925781 C 107.875 180.402344 112.882812 175.828125 118.808594 172.800781 C 127.574219 168.324219 139.765625 164.910156 149.589844 166.9375 C 161.5 169.394531 162.597656 192.179688 152.816406 197.847656 C 150.722656 199.0625 144.402344 201.03125 142.542969 198.445312 C 141.625 197.167969 142.113281 195.386719 142.625 193.886719 C 144.824219 187.355469 146.671875 177.273438 138.0625 175.265625 C 131.570312 173.753906 124.035156 178.242188 118.269531 180.710938 C 111.113281 183.773438 104.382812 187.921875 97.015625 190.355469 Z M 124.265625 246.796875 C 123.550781 249.386719 123.984375 252.1875 123.359375 254.800781 C 118.257812 248.261719 125.875 239.171875 123.175781 231.792969 C 122.726562 230.558594 122.199219 229.328125 122.105469 228.015625 C 121.878906 224.9375 125.082031 222.121094 128.03125 222.765625 C 140.46875 225.472656 125.792969 241.25 124.265625 246.796875 Z M 251.679688 254.800781 C 251.054688 252.1875 251.488281 249.386719 250.777344 246.796875 C 249.25 241.25 234.570312 225.472656 247.011719 222.765625 C 249.957031 222.121094 253.160156 224.9375 252.933594 228.015625 C 252.839844 229.328125 252.316406 230.558594 251.867188 231.792969 C 249.164062 239.171875 256.789062 248.261719 251.679688 254.800781 Z M 258.167969 196.28125 C 257.953125 202.175781 254.917969 207.894531 250.203125 211.289062 C 246.132812 214.21875 241.015625 215.390625 236.042969 215.199219 C 223.339844 214.71875 212.074219 205.722656 205.5 194.589844 C 198.925781 183.457031 196.304688 170.390625 194.347656 157.539062 C 189.519531 125.835938 188.089844 93.75 187.523438 61.636719 C 186.949219 93.75 185.519531 125.835938 180.695312 157.539062 C 178.734375 170.390625 176.113281 183.457031 169.539062 194.589844 C 162.964844 205.722656 151.699219 214.71875 138.996094 215.199219 C 134.023438 215.390625 128.90625 214.21875 124.835938 211.289062 C 120.121094 207.894531 117.085938 202.175781 116.871094 196.28125 C 116.660156 190.386719 119.277344 184.453125 123.738281 180.71875 C 126.136719 178.714844 129.253906 177.300781 132.289062 177.914062 C 135.320312 178.527344 137.910156 181.75 137.078125 184.796875 C 136.066406 188.492188 131.503906 189.585938 129.371094 192.480469 C 129.125 192.816406 128.914062 193.167969 128.738281 193.539062 C 126.1875 198.820312 130.300781 204.265625 134.863281 206.296875 C 141.554688 209.269531 149.640625 206.992188 155.277344 202.257812 C 160.914062 197.527344 164.5 190.726562 167.347656 183.855469 C 178.429688 157.113281 180.257812 127.453125 181.9375 98.457031 C 182.644531 86.285156 183.355469 74.117188 184.058594 61.949219 C 184.414062 55.863281 184.765625 49.777344 185.117188 43.691406 C 185.296875 40.578125 185.476562 37.464844 185.660156 34.351562 C 185.742188 32.886719 185.144531 27.757812 187.523438 28.992188 C 189.898438 27.757812 189.296875 32.886719 189.382812 34.351562 C 189.5625 37.464844 189.742188 40.578125 189.921875 43.691406 C 190.273438 49.777344 190.632812 55.863281 190.984375 61.949219 C 191.691406 74.117188 192.394531 86.285156 193.101562 98.457031 C 194.78125 127.453125 196.609375 157.113281 207.695312 183.855469 C 210.539062 190.726562 214.125 197.527344 219.761719 202.257812 C 225.398438 206.992188 233.488281 209.269531 240.175781 206.296875 C 244.742188 204.265625 248.851562 198.820312 246.300781 193.539062 C 246.125 193.167969 245.914062 192.816406 245.667969 192.480469 C 243.535156 189.585938 238.972656 188.492188 237.960938 184.796875 C 237.128906 181.75 239.71875 178.527344 242.75 177.914062 C 245.785156 177.300781 248.90625 178.714844 251.300781 180.71875 C 255.765625 184.453125 258.382812 190.386719 258.167969 196.28125 Z M 278.023438 190.355469 C 270.660156 187.921875 263.925781 183.773438 256.769531 180.710938 C 251.003906 178.242188 243.472656 173.753906 236.980469 175.265625 C 228.375 177.273438 230.214844 187.355469 232.417969 193.886719 C 232.925781 195.386719 233.414062 197.167969 232.496094 198.445312 C 230.636719 201.03125 224.324219 199.0625 222.222656 197.847656 C 212.441406 192.179688 213.542969 169.394531 225.449219 166.9375 C 235.273438 164.910156 247.464844 168.324219 256.234375 172.800781 C 262.15625 175.828125 267.164062 180.402344 272.097656 184.925781 C 274.074219 186.734375 276.050781 188.546875 278.023438 190.355469 C 278.519531 190.519531 279.011719 190.699219 279.515625 190.847656 L 280.21875 192.367188 C 279.488281 191.699219 278.753906 191.027344 278.023438 190.355469 Z M 277.804688 184.679688 C 272.214844 177.933594 266.234375 171.214844 258.070312 167.949219 C 247.757812 163.824219 236.652344 164.820312 225.945312 166.421875 C 223.074219 166.851562 219.964844 166.769531 217.535156 165.152344 C 210.695312 160.601562 216.785156 154.425781 221.933594 152.910156 C 226.96875 151.429688 233.019531 151.707031 238.140625 152.605469 C 246.816406 154.132812 255.347656 158.394531 262.082031 163.746094 C 269.003906 169.25 273.71875 176.828125 277.804688 184.679688 C 278.921875 186.027344 280.019531 187.378906 281.121094 188.703125 L 281.355469 191.773438 C 280.199219 189.417969 279.03125 187.035156 277.804688 184.679688 Z M 285.347656 186.308594 C 285.320312 184.917969 285.214844 183.53125 285.054688 182.152344 C 284.402344 180.914062 283.75 179.671875 283.101562 178.433594 C 277.964844 168.636719 272.597656 162.515625 263.175781 156.972656 C 254.847656 152.070312 246.183594 146.882812 236.695312 144.761719 C 232.371094 143.792969 227.425781 143.347656 223.378906 145.582031 C 217.695312 148.71875 215.652344 164.152344 206.289062 159.519531 C 201.089844 156.949219 202.460938 148.652344 204.871094 144.5625 C 212.117188 132.265625 231.929688 132.644531 243.484375 136.347656 C 257.050781 140.691406 268.820312 150.453125 277.226562 162.015625 C 281.488281 167.878906 284.199219 174.902344 285.054688 182.152344 C 285.722656 183.425781 286.386719 184.703125 287.054688 185.976562 Z M 285.347656 186.308594 "/></g><path style=" stroke:none;fill-rule:nonzero;fill:#e49e33;fill-opacity:1;" d="M 215.742188 215.660156 L 188.472656 215.660156 L 188.5625 219.585938 L 215.742188 219.585938 Z M 215.742188 215.660156 "/><path style=" stroke:none;fill-rule:nonzero;fill:#e49e33;fill-opacity:1;" d="M 159.457031 219.835938 L 185.777344 219.835938 L 185.851562 215.910156 L 159.457031 215.910156 Z M 159.457031 219.835938 "/><path style=" stroke:none;fill-rule:nonzero;fill:#e49e33;fill-opacity:1;" d="M 189.585938 264.175781 L 189.59375 264.644531 C 195.015625 264.359375 200.445312 264.28125 205.871094 264.175781 Z M 189.585938 264.175781 "/><path style=" stroke:none;fill-rule:nonzero;fill:#e49e33;fill-opacity:1;" d="M 185.425781 264.640625 L 185.425781 264.421875 L 180.066406 264.421875 C 181.851562 264.480469 183.640625 264.550781 185.425781 264.640625 Z M 185.425781 264.640625 "/><path style=" stroke:none;fill-rule:nonzero;fill:#e49e33;fill-opacity:1;" d="M 135.351562 88.164062 C 135.988281 87.382812 136.617188 86.605469 137.253906 85.824219 C 136.207031 86.386719 135.402344 87.15625 135.351562 88.164062 Z M 135.351562 88.164062 "/><path style=" stroke:none;fill-rule:nonzero;fill:#e49e33;fill-opacity:1;" d="M 185.625 264.648438 C 185.5625 264.644531 185.496094 264.644531 185.425781 264.640625 L 185.425781 266.335938 C 185.503906 266.320312 185.578125 266.308594 185.65625 266.289062 C 185.648438 265.738281 185.636719 265.195312 185.625 264.648438 Z M 185.625 264.648438 "/><path style=" stroke:none;fill-rule:nonzero;fill:#e49e33;fill-opacity:1;" d="M 189.414062 264.648438 C 189.40625 265.195312 189.390625 265.738281 189.382812 266.289062 C 189.46875 266.308594 189.550781 266.320312 189.636719 266.339844 L 189.59375 264.644531 C 189.535156 264.644531 189.472656 264.648438 189.414062 264.648438 Z M 189.414062 264.648438 "/><path style=" stroke:none;fill-rule:nonzero;fill:#e49e33;fill-opacity:1;" d="M 187.574219 215.910156 L 187.574219 213.714844 L 185.890625 213.714844 L 185.851562 215.910156 Z M 187.574219 215.910156 "/><path style=" stroke:none;fill-rule:nonzero;fill:#e49e33;fill-opacity:1;" d="M 185.949219 221.210938 C 185.960938 221.480469 185.957031 221.753906 185.96875 222.027344 L 187.410156 222.027344 L 187.410156 219.835938 L 185.777344 219.835938 L 185.753906 221.203125 C 185.820312 221.207031 185.886719 221.207031 185.949219 221.210938 Z M 185.949219 221.210938 "/><path style=" stroke:none;fill-rule:nonzero;fill:#e49e33;fill-opacity:1;" d="M 151.367188 213.714844 L 151.84375 213.714844 L 151.84375 215.910156 L 151.367188 215.910156 Z M 151.367188 213.714844 "/><path style=" stroke:none;fill-rule:nonzero;fill:#e49e33;fill-opacity:1;" d="M 151.199219 219.835938 L 151.84375 219.835938 L 151.84375 222.027344 L 151.199219 222.027344 Z M 151.199219 219.835938 "/><path style=" stroke:none;fill-rule:nonzero;fill:#e49e33;fill-opacity:1;" d="M 187.183594 160.191406 C 187.066406 161.296875 186.949219 162.40625 186.820312 163.511719 L 185.921875 212.128906 C 186.3125 212.128906 186.707031 212.128906 187.101562 212.128906 C 187.128906 194.816406 187.15625 177.503906 187.183594 160.191406 Z M 187.183594 160.191406 "/><path style=" stroke:none;fill-rule:nonzero;fill:#e49e33;fill-opacity:1;" d="M 156.726562 264.421875 L 159.457031 264.421875 L 159.457031 264.65625 L 156.726562 264.65625 Z M 156.726562 264.421875 "/><path style=" stroke:none;fill-rule:nonzero;fill:#e49e33;fill-opacity:1;" d="M 156.726562 213.949219 L 159.457031 213.949219 L 159.457031 215.910156 L 156.726562 215.910156 Z M 156.726562 213.949219 "/><path style=" stroke:none;fill-rule:nonzero;fill:#e49e33;fill-opacity:1;" d="M 159.128906 221.882812 C 159.230469 221.765625 159.339844 221.671875 159.457031 221.578125 L 159.457031 219.835938 L 156.726562 219.835938 L 156.726562 222.027344 L 159.015625 222.027344 C 159.054688 221.980469 159.089844 221.925781 159.128906 221.882812 Z M 159.128906 221.882812 "/><path style=" stroke:none;fill-rule:nonzero;fill:#e49e33;fill-opacity:1;" d="M 185.425781 261.234375 L 187.074219 261.234375 L 187.074219 264.421875 L 185.425781 264.421875 Z M 185.425781 261.234375 "/><path style=" stroke:none;fill-rule:nonzero;fill:#e49e33;fill-opacity:1;" d="M 156.726562 264.421875 L 156.726562 263.765625 C 155.097656 263.679688 153.46875 263.570312 151.84375 263.445312 L 151.84375 264.421875 Z M 156.726562 264.421875 "/><path style=" stroke:none;fill-rule:nonzero;fill:#e49e33;fill-opacity:1;" d="M 159.457031 264.421875 L 180.066406 264.421875 C 173.199219 264.207031 166.320312 264.183594 159.457031 263.902344 Z M 159.457031 264.421875 "/><path style=" stroke:none;fill-rule:nonzero;fill:#e49e33;fill-opacity:1;" d="M 159.457031 261.234375 L 156.726562 261.234375 L 156.726562 263.765625 C 157.636719 263.816406 158.546875 263.863281 159.457031 263.902344 Z M 159.457031 261.234375 "/><path style=" stroke:none;fill-rule:nonzero;fill:#e49e33;fill-opacity:1;" d="M 187.625 215.660156 L 188.472656 215.660156 L 188.425781 213.714844 L 188.433594 213.46875 L 187.625 213.46875 Z M 187.625 215.660156 "/><path style=" stroke:none;fill-rule:nonzero;fill:#e49e33;fill-opacity:1;" d="M 188.597656 221.203125 L 188.5625 219.585938 L 187.789062 219.585938 L 187.789062 221.777344 L 188.332031 221.777344 C 188.34375 221.589844 188.335938 221.398438 188.347656 221.210938 C 188.433594 221.207031 188.511719 221.207031 188.597656 221.203125 Z M 188.597656 221.203125 "/><path style=" stroke:none;fill-rule:nonzero;fill:#e49e33;fill-opacity:1;" d="M 223.359375 213.46875 L 223.835938 213.46875 L 223.835938 215.660156 L 223.359375 215.660156 Z M 223.359375 213.46875 "/><path style=" stroke:none;fill-rule:nonzero;fill:#e49e33;fill-opacity:1;" d="M 223.359375 219.585938 L 224 219.585938 L 224 221.777344 L 223.359375 221.777344 Z M 223.359375 219.585938 "/><path style=" stroke:none;fill-rule:nonzero;fill:#e49e33;fill-opacity:1;" d="M 188.097656 211.878906 C 188.214844 211.878906 188.332031 211.878906 188.449219 211.878906 L 188.945312 167.75 C 188.582031 165.148438 188.285156 162.539062 188.015625 159.941406 C 188.042969 177.253906 188.070312 194.566406 188.097656 211.878906 Z M 188.097656 211.878906 "/><path style=" stroke:none;fill-rule:nonzero;fill:#e49e33;fill-opacity:1;" d="M 215.742188 264.175781 L 218.472656 264.175781 L 218.472656 264.40625 L 215.742188 264.40625 Z M 215.742188 264.175781 "/><path style=" stroke:none;fill-rule:nonzero;fill:#e49e33;fill-opacity:1;" d="M 215.742188 213.699219 L 218.472656 213.699219 L 218.472656 215.660156 L 215.742188 215.660156 Z M 215.742188 213.699219 "/><path style=" stroke:none;fill-rule:nonzero;fill:#e49e33;fill-opacity:1;" d="M 215.742188 219.585938 L 215.742188 221.394531 C 215.917969 221.503906 216.085938 221.628906 216.242188 221.777344 L 218.46875 221.777344 L 218.46875 219.585938 Z M 215.742188 219.585938 "/><path style=" stroke:none;fill-rule:nonzero;fill:#e49e33;fill-opacity:1;" d="M 188.121094 260.984375 L 188.121094 264.175781 L 189.585938 264.175781 L 189.507812 260.984375 Z M 188.121094 260.984375 "/><path style=" stroke:none;fill-rule:nonzero;fill:#e49e33;fill-opacity:1;" d="M 205.871094 264.175781 L 215.742188 264.175781 L 215.742188 263.894531 C 212.453125 264.03125 209.164062 264.109375 205.871094 264.175781 Z M 205.871094 264.175781 "/><path style=" stroke:none;fill-rule:nonzero;fill:#e49e33;fill-opacity:1;" d="M 218.46875 264.175781 L 223.359375 264.175781 L 223.359375 263.433594 C 221.730469 263.5625 220.101562 263.671875 218.46875 263.757812 Z M 218.46875 264.175781 "/><path style=" stroke:none;fill-rule:nonzero;fill:#e49e33;fill-opacity:1;" d="M 215.742188 263.894531 C 216.652344 263.859375 217.558594 263.804688 218.46875 263.757812 L 218.46875 260.984375 L 215.742188 260.984375 Z M 215.742188 263.894531 "/><path style=" stroke:none;fill-rule:nonzero;fill:#e49e33;fill-opacity:1;" d="M 185.425781 238.875 L 185.425781 238.925781 C 185.945312 233.308594 186.128906 227.664062 185.96875 222.027344 L 185.738281 222.027344 Z M 185.425781 238.875 "/><path style=" stroke:none;fill-rule:nonzero;fill:#e49e33;fill-opacity:1;" d="M 185.738281 222.027344 L 185.753906 221.203125 C 178.253906 221.046875 170.753906 220.894531 163.257812 220.738281 C 161.792969 220.707031 160.425781 220.792969 159.457031 221.578125 L 159.457031 222.027344 Z M 185.738281 222.027344 "/><path style=" stroke:none;fill-rule:nonzero;fill:#e49e33;fill-opacity:1;" d="M 158.507812 222.867188 C 157.667969 224.84375 157.644531 227.191406 158.335938 229.207031 C 158.449219 229.535156 158.59375 229.875 158.863281 230.101562 C 159.035156 230.246094 159.242188 230.320312 159.457031 230.375 L 159.457031 222.027344 L 159.015625 222.027344 C 158.824219 222.265625 158.648438 222.539062 158.507812 222.867188 Z M 158.507812 222.867188 "/><path style=" stroke:none;fill-rule:nonzero;fill:#e49e33;fill-opacity:1;" d="M 188.332031 221.777344 C 188.132812 228.046875 188.367188 234.324219 189.046875 240.5625 L 188.613281 221.777344 Z M 188.332031 221.777344 "/><path style=" stroke:none;fill-rule:nonzero;fill:#e49e33;fill-opacity:1;" d="M 212.046875 220.738281 C 204.230469 220.890625 196.417969 221.046875 188.597656 221.203125 L 188.613281 221.777344 L 215.742188 221.777344 L 215.742188 221.394531 C 214.75 220.785156 213.445312 220.707031 212.046875 220.738281 Z M 212.046875 220.738281 "/><path style=" stroke:none;fill-rule:nonzero;fill:#e49e33;fill-opacity:1;" d="M 217.1875 229.207031 C 217.910156 227.191406 217.878906 224.84375 217.003906 222.867188 C 216.828125 222.472656 216.613281 222.148438 216.359375 221.882812 C 216.324219 221.84375 216.277344 221.8125 216.242188 221.777344 L 215.742188 221.777344 L 215.742188 230.425781 C 216.070312 230.390625 216.386719 230.304688 216.636719 230.101562 C 216.917969 229.875 217.066406 229.535156 217.1875 229.207031 Z M 217.1875 229.207031 "/><path style=" stroke:none;fill-rule:nonzero;fill:#e49e33;fill-opacity:1;" d="M 185.035156 336.253906 C 186.820312 333.433594 186.414062 329.625 184.757812 326.722656 C 183.109375 323.820312 180.410156 321.671875 177.632812 319.820312 C 169.800781 314.605469 160.789062 311.183594 151.46875 309.878906 C 150.320312 309.71875 149.125 309.578125 148.125 308.980469 C 147.128906 308.382812 146.382812 307.183594 146.703125 306.0625 C 147.273438 304.0625 150.136719 304.214844 152 303.289062 C 154.328125 302.132812 155.035156 298.816406 153.757812 296.554688 C 152.488281 294.292969 149.714844 293.148438 147.125 293.320312 C 141.269531 293.710938 134.453125 300.160156 136.417969 306.398438 C 137.570312 310.054688 141.429688 312.105469 145.09375 313.253906 C 152.863281 315.6875 161.367188 315.832031 168.632812 319.503906 C 175.695312 323.074219 180.785156 329.582031 185.035156 336.253906 Z M 185.035156 336.253906 "/><path style=" stroke:none;fill-rule:nonzero;fill:#e49e33;fill-opacity:1;" d="M 112.609375 294.675781 C 112.746094 294.699219 112.878906 294.730469 113.015625 294.777344 C 114.054688 295.097656 114.863281 295.90625 115.78125 296.496094 C 118.023438 297.933594 121.097656 297.9375 123.347656 296.515625 C 124.136719 296.015625 124.835938 295.339844 125.253906 294.5 C 126.507812 291.976562 124.824219 288.910156 122.640625 287.128906 C 114.332031 280.375 100.949219 285.753906 100.296875 296.585938 C 100.082031 300.144531 101.332031 303.761719 103.691406 306.429688 C 107.859375 311.136719 114.59375 312.375 120.777344 313.503906 C 133.351562 315.796875 145.820312 318.773438 157.914062 322.902344 C 167.835938 326.285156 178.046875 330.882812 183.902344 339.574219 C 180.941406 331.5 174.03125 325.359375 166.316406 321.558594 C 158.597656 317.765625 150.050781 316.042969 141.585938 314.503906 C 133.125 312.964844 124.558594 311.554688 116.59375 308.3125 C 113.011719 306.851562 109.230469 304.621094 108.242188 300.878906 C 107.84375 299.359375 107.992188 297.640625 108.890625 296.351562 C 109.710938 295.175781 111.214844 294.453125 112.609375 294.675781 Z M 112.609375 294.675781 "/><g clip-rule="nonzero" clip-path="url(#3e2a5274f0)"><path style=" stroke:none;fill-rule:nonzero;fill:#e49e33;fill-opacity:1;" d="M 83.0625 266.632812 C 84.230469 268.046875 84.761719 269.875 84.058594 271.796875 C 83.53125 273.226562 82.398438 274.382812 81.910156 275.824219 C 80.84375 278.996094 83.542969 282.585938 86.839844 283.183594 C 90.132812 283.78125 93.507812 281.96875 95.625 279.375 C 99.402344 274.738281 99.632812 267.714844 96.664062 262.523438 C 93.695312 257.328125 87.902344 254.03125 81.941406 253.496094 C 68.074219 252.253906 56.410156 263.894531 55.695312 277.410156 C 55.300781 284.835938 58.164062 292.222656 62.789062 298.046875 C 67.410156 303.875 73.691406 308.222656 80.417969 311.390625 C 91.773438 316.734375 104.363281 318.824219 116.824219 320.34375 C 129.28125 321.855469 141.878906 322.867188 153.964844 326.257812 C 166.050781 329.648438 177.792969 335.675781 185.625 345.492188 C 181.195312 336.339844 172.597656 329.738281 163.261719 325.710938 C 153.929688 321.6875 143.792969 319.957031 133.761719 318.3125 C 119.242188 315.9375 104.582031 313.632812 90.867188 308.3125 C 82.570312 305.085938 74.390625 300.507812 69.355469 293.164062 C 64.324219 285.816406 63.277344 275.1875 68.847656 268.242188 C 71.019531 265.527344 74.539062 263.527344 78.09375 263.929688 C 79.96875 264.140625 81.855469 265.164062 83.0625 266.632812 Z M 83.0625 266.632812 "/></g><g clip-rule="nonzero" clip-path="url(#f307c20907)"><path style=" stroke:none;fill-rule:nonzero;fill:#e49e33;fill-opacity:1;" d="M 185.625 349.40625 C 181.566406 345.742188 177.75 341.667969 172.945312 338.925781 C 168.953125 336.640625 164.40625 335.589844 159.867188 335.023438 C 156.039062 334.542969 150.261719 333.214844 147.238281 336.375 C 146.0625 337.609375 145.570312 339.328125 144.585938 340.710938 C 142.78125 343.246094 139.183594 344.410156 136.234375 343.335938 C 133.292969 342.261719 131.320312 338.992188 131.855469 335.941406 C 132.414062 332.757812 135.226562 330.496094 138.070312 329.242188 C 141.933594 327.539062 146.308594 327.160156 150.515625 327.632812 C 154.722656 328.105469 158.792969 329.394531 162.738281 330.910156 C 168.917969 333.28125 176.996094 336.589844 180.851562 342.230469 C 182.597656 344.777344 184.042969 347.585938 185.625 350.238281 "/></g><g clip-rule="nonzero" clip-path="url(#7fa0deb9fb)"><path style=" stroke:none;fill-rule:nonzero;fill:#e49e33;fill-opacity:1;" d="M 184.566406 351.097656 C 179.816406 344.863281 173.046875 340.199219 165.53125 337.980469 C 161.324219 336.734375 152.632812 336.457031 153.347656 343.1875 C 153.519531 344.789062 154.535156 346.273438 155.957031 347.023438 C 157.707031 347.933594 159.824219 347.71875 161.726562 347.207031 C 163.632812 346.699219 165.480469 345.914062 167.4375 345.742188 C 170.300781 345.496094 173.09375 346.566406 175.761719 347.621094 C 178.695312 348.78125 181.632812 349.9375 184.566406 351.097656 Z M 184.566406 351.097656 "/></g><path style=" stroke:none;fill-rule:nonzero;fill:#e49e33;fill-opacity:1;" d="M 190.546875 332.933594 C 188.761719 330.109375 189.167969 326.304688 190.820312 323.398438 C 192.46875 320.496094 195.167969 318.347656 197.949219 316.5 C 205.78125 311.285156 214.792969 307.863281 224.105469 306.554688 C 225.257812 306.390625 226.453125 306.253906 227.453125 305.65625 C 228.449219 305.058594 229.199219 303.859375 228.878906 302.742188 C 228.304688 300.738281 225.445312 300.890625 223.578125 299.96875 C 221.253906 298.808594 220.546875 295.492188 221.820312 293.230469 C 223.09375 290.96875 225.863281 289.824219 228.453125 290 C 234.3125 290.390625 241.125 296.835938 239.160156 303.074219 C 238.011719 306.734375 234.148438 308.785156 230.488281 309.929688 C 222.71875 312.363281 214.210938 312.511719 206.945312 316.179688 C 199.882812 319.75 194.792969 326.253906 190.546875 332.933594 Z M 190.546875 332.933594 "/><path style=" stroke:none;fill-rule:nonzero;fill:#e49e33;fill-opacity:1;" d="M 262.96875 291.355469 C 262.835938 291.378906 262.699219 291.410156 262.566406 291.449219 C 261.523438 291.769531 260.71875 292.582031 259.796875 293.171875 C 257.554688 294.609375 254.480469 294.617188 252.230469 293.191406 C 251.445312 292.691406 250.746094 292.019531 250.328125 291.179688 C 249.074219 288.652344 250.753906 285.582031 252.941406 283.804688 C 261.25 277.050781 274.632812 282.429688 275.28125 293.265625 C 275.496094 296.816406 274.246094 300.433594 271.886719 303.101562 C 267.71875 307.816406 260.988281 309.050781 254.800781 310.183594 C 242.230469 312.476562 229.761719 315.449219 217.667969 319.578125 C 207.746094 322.964844 197.535156 327.5625 191.671875 336.25 C 194.636719 328.179688 201.542969 322.03125 209.261719 318.238281 C 216.980469 314.441406 225.53125 312.71875 233.992188 311.183594 C 242.453125 309.644531 251.019531 308.234375 258.988281 304.992188 C 262.570312 303.53125 266.351562 301.296875 267.335938 297.554688 C 267.738281 296.03125 267.589844 294.316406 266.6875 293.027344 C 265.867188 291.851562 264.367188 291.125 262.96875 291.355469 Z M 262.96875 291.355469 "/><g clip-rule="nonzero" clip-path="url(#eb7e913cb2)"><path style=" stroke:none;fill-rule:nonzero;fill:#e49e33;fill-opacity:1;" d="M 292.515625 263.3125 C 291.347656 264.722656 290.8125 266.550781 291.519531 268.472656 C 292.046875 269.902344 293.179688 271.054688 293.667969 272.5 C 294.738281 275.675781 292.035156 279.261719 288.738281 279.859375 C 285.445312 280.457031 282.070312 278.648438 279.953125 276.050781 C 276.171875 271.414062 275.949219 264.390625 278.917969 259.195312 C 281.886719 254.003906 287.675781 250.707031 293.632812 250.171875 C 307.507812 248.929688 319.167969 260.570312 319.886719 274.085938 C 320.277344 281.511719 317.417969 288.894531 312.792969 294.722656 C 308.167969 300.546875 301.886719 304.902344 295.160156 308.070312 C 283.804688 313.410156 271.214844 315.503906 258.757812 317.015625 C 246.296875 318.53125 233.699219 319.546875 221.613281 322.933594 C 209.527344 326.328125 197.78125 332.355469 189.957031 342.164062 C 194.382812 333.015625 202.980469 326.414062 212.3125 322.390625 C 221.648438 318.359375 231.789062 316.628906 241.820312 314.988281 C 256.335938 312.609375 271 310.3125 284.710938 304.988281 C 293.011719 301.765625 301.191406 297.1875 306.222656 289.835938 C 311.257812 282.492188 312.300781 271.863281 306.730469 264.914062 C 304.558594 262.207031 301.042969 260.207031 297.484375 260.605469 C 295.613281 260.820312 293.722656 261.835938 292.515625 263.3125 Z M 292.515625 263.3125 "/></g><path style=" stroke:none;fill-rule:nonzero;fill:#e49e33;fill-opacity:1;" d="M 189.957031 346.082031 C 194.015625 342.417969 197.832031 338.347656 202.636719 335.601562 C 206.621094 333.316406 211.171875 332.269531 215.710938 331.699219 C 219.542969 331.21875 225.316406 329.894531 228.339844 333.054688 C 229.519531 334.285156 230.007812 336 230.996094 337.390625 C 232.796875 339.921875 236.394531 341.089844 239.339844 340.011719 C 242.289062 338.933594 244.261719 335.667969 243.726562 332.617188 C 243.167969 329.429688 240.355469 327.167969 237.507812 325.917969 C 233.644531 324.214844 229.269531 323.839844 225.066406 324.3125 C 220.855469 324.785156 216.789062 326.074219 212.839844 327.585938 C 206.660156 329.957031 198.585938 333.265625 194.726562 338.902344 C 192.984375 341.453125 191.535156 344.261719 189.957031 346.914062 "/><path style=" stroke:none;fill-rule:nonzero;fill:#e49e33;fill-opacity:1;" d="M 191.015625 347.769531 C 195.761719 341.539062 202.53125 336.875 210.042969 334.660156 C 214.257812 333.414062 222.949219 333.132812 222.230469 339.863281 C 222.058594 341.460938 221.046875 342.949219 219.617188 343.699219 C 217.875 344.609375 215.757812 344.394531 213.851562 343.886719 C 211.949219 343.375 210.101562 342.589844 208.140625 342.421875 C 205.28125 342.175781 202.484375 343.242188 199.820312 344.296875 C 196.878906 345.453125 193.949219 346.613281 191.015625 347.769531 Z M 191.015625 347.769531 "/></g></svg>